<?xml version="1.0" encoding="UTF-8" standalone="no"?>
<!DOCTYPE svg PUBLIC "-//W3C//DTD SVG 1.1//EN"
 "http://www.w3.org/Graphics/SVG/1.1/DTD/svg11.dtd">
<!-- Generated by graphviz version 2.40.1 (20161225.0304)
 -->
<!-- Title: dependencies Pages: 1 -->
<svg width="1453pt" height="284pt"
 viewBox="0.00 0.00 1453.00 284.00" xmlns="http://www.w3.org/2000/svg" xmlns:xlink="http://www.w3.org/1999/xlink">
<g id="graph0" class="graph" transform="scale(1 1) rotate(0) translate(4 280)">
<title>dependencies</title>
<polygon fill="#ffffff" stroke="transparent" points="-4,4 -4,-280 1449,-280 1449,4 -4,4"/>
<text text-anchor="start" x="701.5091" y="-42.4" font-family="sans-serif" font-weight="bold" font-size="14.00" fill="#000000">Legend</text>
<polygon fill="#ffffb3" stroke="transparent" points="488.5,-10 488.5,-30 508.5,-30 508.5,-10 488.5,-10"/>
<text text-anchor="start" x="512.129" y="-15.4" font-family="sans-serif" font-size="14.00" fill="#000000"> &#160;Declarations</text>
<polygon fill="#8dd3c7" stroke="transparent" points="601.5,-10 601.5,-30 621.5,-30 621.5,-10 601.5,-10"/>
<text text-anchor="start" x="625.2251" y="-15.4" font-family="sans-serif" font-size="14.00" fill="#000000"> &#160;Module</text>
<polygon fill="#80b1d3" stroke="transparent" points="687.5,-10 687.5,-30 707.5,-30 707.5,-10 687.5,-10"/>
<text text-anchor="start" x="711.2812" y="-15.4" font-family="sans-serif" font-size="14.00" fill="#000000"> &#160;Bootstrap</text>
<polygon fill="#fdb462" stroke="transparent" points="784.5,-10 784.5,-30 804.5,-30 804.5,-10 784.5,-10"/>
<text text-anchor="start" x="808.1732" y="-15.4" font-family="sans-serif" font-size="14.00" fill="#000000"> &#160;Providers</text>
<polygon fill="#fb8072" stroke="transparent" points="880.5,-10 880.5,-30 900.5,-30 900.5,-10 880.5,-10"/>
<text text-anchor="start" x="904.2258" y="-15.4" font-family="sans-serif" font-size="14.00" fill="#000000"> &#160;Exports</text>
<g id="clust1" class="cluster">
<title>cluster_BlinktDashboardModule</title>
<polygon fill="none" stroke="#000000" stroke-dasharray="1,5" points="8,-70 8,-268 1437,-268 1437,-70 8,-70"/>
</g>
<g id="clust2" class="cluster">
<title>cluster_BlinktDashboardModule_declarations</title>
<polygon fill="none" stroke="#000000" points="809,-78 809,-130 1429,-130 1429,-78 809,-78"/>
</g>
<g id="clust7" class="cluster">
<title>cluster_BlinktDashboardModule_imports</title>
<polygon fill="none" stroke="#000000" points="16,-78 16,-130 801,-130 801,-78 16,-78"/>
</g>
<g id="clust8" class="cluster">
<title>cluster_BlinktDashboardModule_exports</title>
<polygon fill="none" stroke="#000000" points="656,-208 656,-260 818,-260 818,-208 656,-208"/>
</g>
<!-- DashboardComponent -->
<g id="node1" class="node">
<title>DashboardComponent</title>
<polygon fill="#ffffb3" stroke="#000000" points="1420.9734,-122 1279.0266,-122 1279.0266,-86 1420.9734,-86 1420.9734,-122"/>
<text text-anchor="middle" x="1350" y="-99.8" font-family="Times,serif" font-size="14.00" fill="#000000">DashboardComponent</text>
</g>
<!-- BlinktDashboardModule -->
<g id="node5" class="node">
<title>BlinktDashboardModule</title>
<polygon fill="#8dd3c7" stroke="#000000" points="814.6993,-187 811.6993,-191 790.6993,-191 787.6993,-187 659.3007,-187 659.3007,-151 814.6993,-151 814.6993,-187"/>
<text text-anchor="middle" x="737" y="-164.8" font-family="Times,serif" font-size="14.00" fill="#000000">BlinktDashboardModule</text>
</g>
<!-- DashboardComponent&#45;&gt;BlinktDashboardModule -->
<g id="edge1" class="edge">
<title>DashboardComponent&#45;&gt;BlinktDashboardModule</title>
<path fill="none" stroke="#000000" d="M1350,-122.2921C1350,-144.2057 1350,-178 1350,-178 1350,-178 824.6369,-178 824.6369,-178"/>
<polygon fill="#000000" stroke="#000000" points="824.6369,-174.5001 814.6369,-178 824.6368,-181.5001 824.6369,-174.5001"/>
</g>
<!-- LedListComponent -->
<g id="node2" class="node">
<title>LedListComponent</title>
<polygon fill="#ffffb3" stroke="#000000" points="1261.3781,-122 1136.6219,-122 1136.6219,-86 1261.3781,-86 1261.3781,-122"/>
<text text-anchor="middle" x="1199" y="-99.8" font-family="Times,serif" font-size="14.00" fill="#000000">LedListComponent</text>
</g>
<!-- LedListComponent&#45;&gt;BlinktDashboardModule -->
<g id="edge2" class="edge">
<title>LedListComponent&#45;&gt;BlinktDashboardModule</title>
<path fill="none" stroke="#000000" d="M1199,-122.1061C1199,-141.3391 1199,-169 1199,-169 1199,-169 824.8496,-169 824.8496,-169"/>
<polygon fill="#000000" stroke="#000000" points="824.8496,-165.5001 814.8496,-169 824.8495,-172.5001 824.8496,-165.5001"/>
</g>
<!-- ColorFormComponent -->
<g id="node3" class="node">
<title>ColorFormComponent</title>
<polygon fill="#ffffb3" stroke="#000000" points="1118.5547,-122 975.4453,-122 975.4453,-86 1118.5547,-86 1118.5547,-122"/>
<text text-anchor="middle" x="1047" y="-99.8" font-family="Times,serif" font-size="14.00" fill="#000000">ColorFormComponent</text>
</g>
<!-- ColorFormComponent&#45;&gt;BlinktDashboardModule -->
<g id="edge3" class="edge">
<title>ColorFormComponent&#45;&gt;BlinktDashboardModule</title>
<path fill="none" stroke="#000000" d="M1047,-122.027C1047,-138.3976 1047,-160 1047,-160 1047,-160 824.826,-160 824.826,-160"/>
<polygon fill="#000000" stroke="#000000" points="824.826,-156.5001 814.826,-160 824.8259,-163.5001 824.826,-156.5001"/>
</g>
<!-- ActionBarComponent -->
<g id="node4" class="node">
<title>ActionBarComponent</title>
<polygon fill="#ffffb3" stroke="#000000" points="956.647,-122 817.353,-122 817.353,-86 956.647,-86 956.647,-122"/>
<text text-anchor="middle" x="887" y="-99.8" font-family="Times,serif" font-size="14.00" fill="#000000">ActionBarComponent</text>
</g>
<!-- ActionBarComponent&#45;&gt;BlinktDashboardModule -->
<g id="edge4" class="edge">
<title>ActionBarComponent&#45;&gt;BlinktDashboardModule</title>
<path fill="none" stroke="#000000" d="M817.0976,-104C809.0858,-104 803.7167,-104 803.7167,-104 803.7167,-104 803.7167,-140.8939 803.7167,-140.8939"/>
<polygon fill="#000000" stroke="#000000" points="800.2168,-140.8938 803.7167,-150.8939 807.2168,-140.8939 800.2168,-140.8938"/>
</g>
<!-- DashboardComponent  -->
<g id="node11" class="node">
<title>DashboardComponent </title>
<polygon fill="#fb8072" stroke="#000000" points="809.9742,-252 664.0258,-252 664.0258,-216 809.9742,-216 809.9742,-252"/>
<text text-anchor="middle" x="737" y="-229.8" font-family="Times,serif" font-size="14.00" fill="#000000">DashboardComponent </text>
</g>
<!-- BlinktDashboardModule&#45;&gt;DashboardComponent  -->
<g id="edge10" class="edge">
<title>BlinktDashboardModule&#45;&gt;DashboardComponent </title>
<path fill="none" stroke="#000000" stroke-dasharray="5,2" d="M737,-187.1061C737,-187.1061 737,-205.991 737,-205.991"/>
<polygon fill="#000000" stroke="#000000" points="733.5001,-205.9909 737,-215.991 740.5001,-205.991 733.5001,-205.9909"/>
</g>
<!-- CommonModule -->
<g id="node6" class="node">
<title>CommonModule</title>
<polygon fill="#8dd3c7" stroke="#000000" points="792.6681,-122 789.6681,-126 768.6681,-126 765.6681,-122 681.3319,-122 681.3319,-86 792.6681,-86 792.6681,-122"/>
<text text-anchor="middle" x="737" y="-99.8" font-family="Times,serif" font-size="14.00" fill="#000000">CommonModule</text>
</g>
<!-- CommonModule&#45;&gt;BlinktDashboardModule -->
<g id="edge5" class="edge">
<title>CommonModule&#45;&gt;BlinktDashboardModule</title>
<path fill="none" stroke="#000000" d="M737,-122.1061C737,-122.1061 737,-140.991 737,-140.991"/>
<polygon fill="#000000" stroke="#000000" points="733.5001,-140.9909 737,-150.991 740.5001,-140.991 733.5001,-140.9909"/>
</g>
<!-- FormsModule -->
<g id="node7" class="node">
<title>FormsModule</title>
<polygon fill="#8dd3c7" stroke="#000000" points="663.8288,-122 660.8288,-126 639.8288,-126 636.8288,-122 568.1712,-122 568.1712,-86 663.8288,-86 663.8288,-122"/>
<text text-anchor="middle" x="616" y="-99.8" font-family="Times,serif" font-size="14.00" fill="#000000">FormsModule</text>
</g>
<!-- FormsModule&#45;&gt;BlinktDashboardModule -->
<g id="edge6" class="edge">
<title>FormsModule&#45;&gt;BlinktDashboardModule</title>
<path fill="none" stroke="#000000" d="M664.0909,-104C669.1061,-104 672.4152,-104 672.4152,-104 672.4152,-104 672.4152,-140.8939 672.4152,-140.8939"/>
<polygon fill="#000000" stroke="#000000" points="668.9152,-140.8938 672.4152,-150.8939 675.9152,-140.8939 668.9152,-140.8938"/>
</g>
<!-- ReactiveFormsModule -->
<g id="node8" class="node">
<title>ReactiveFormsModule</title>
<polygon fill="#8dd3c7" stroke="#000000" points="550.3047,-122 547.3047,-126 526.3047,-126 523.3047,-122 405.6953,-122 405.6953,-86 550.3047,-86 550.3047,-122"/>
<text text-anchor="middle" x="478" y="-99.8" font-family="Times,serif" font-size="14.00" fill="#000000">ReactiveFormsModule</text>
</g>
<!-- ReactiveFormsModule&#45;&gt;BlinktDashboardModule -->
<g id="edge7" class="edge">
<title>ReactiveFormsModule&#45;&gt;BlinktDashboardModule</title>
<path fill="none" stroke="#000000" d="M478,-122.027C478,-138.3976 478,-160 478,-160 478,-160 649.2915,-160 649.2915,-160"/>
<polygon fill="#000000" stroke="#000000" points="649.2915,-163.5001 659.2915,-160 649.2914,-156.5001 649.2915,-163.5001"/>
</g>
<!-- BlinktDashboardRoutingModule -->
<g id="node9" class="node">
<title>BlinktDashboardRoutingModule</title>
<polygon fill="#8dd3c7" stroke="#000000" points="388.3173,-122 385.3173,-126 364.3173,-126 361.3173,-122 187.6827,-122 187.6827,-86 388.3173,-86 388.3173,-122"/>
<text text-anchor="middle" x="288" y="-99.8" font-family="Times,serif" font-size="14.00" fill="#000000">BlinktDashboardRoutingModule</text>
</g>
<!-- BlinktDashboardRoutingModule&#45;&gt;BlinktDashboardModule -->
<g id="edge8" class="edge">
<title>BlinktDashboardRoutingModule&#45;&gt;BlinktDashboardModule</title>
<path fill="none" stroke="#000000" d="M288,-122.1061C288,-141.3391 288,-169 288,-169 288,-169 649.3028,-169 649.3028,-169"/>
<polygon fill="#000000" stroke="#000000" points="649.3028,-172.5001 659.3028,-169 649.3027,-165.5001 649.3028,-172.5001"/>
</g>
<!-- BlinktCommonModule -->
<g id="node10" class="node">
<title>BlinktCommonModule</title>
<polygon fill="#8dd3c7" stroke="#000000" points="170.1764,-122 167.1764,-126 146.1764,-126 143.1764,-122 23.8236,-122 23.8236,-86 170.1764,-86 170.1764,-122"/>
<text text-anchor="middle" x="97" y="-99.8" font-family="Times,serif" font-size="14.00" fill="#000000">BlinktCommonModule</text>
</g>
<!-- BlinktCommonModule&#45;&gt;BlinktDashboardModule -->
<g id="edge9" class="edge">
<title>BlinktCommonModule&#45;&gt;BlinktDashboardModule</title>
<path fill="none" stroke="#000000" d="M97,-122.2921C97,-144.2057 97,-178 97,-178 97,-178 649.1633,-178 649.1633,-178"/>
<polygon fill="#000000" stroke="#000000" points="649.1633,-181.5001 659.1633,-178 649.1632,-174.5001 649.1633,-181.5001"/>
</g>
</g>
</svg>
