<?xml version="1.0" encoding="UTF-8" standalone="no"?>
<!DOCTYPE svg PUBLIC "-//W3C//DTD SVG 1.1//EN"
 "http://www.w3.org/Graphics/SVG/1.1/DTD/svg11.dtd">
<!-- Generated by graphviz version 2.40.1 (20161225.0304)
 -->
<!-- Title: dependencies Pages: 1 -->
<svg width="1291pt" height="284pt"
 viewBox="0.00 0.00 1291.00 284.00" xmlns="http://www.w3.org/2000/svg" xmlns:xlink="http://www.w3.org/1999/xlink">
<g id="graph0" class="graph" transform="scale(1 1) rotate(0) translate(4 280)">
<title>dependencies</title>
<polygon fill="#ffffff" stroke="transparent" points="-4,4 -4,-280 1287,-280 1287,4 -4,4"/>
<text text-anchor="start" x="620.5091" y="-42.4" font-family="sans-serif" font-weight="bold" font-size="14.00" fill="#000000">Legend</text>
<polygon fill="#ffffb3" stroke="transparent" points="407.5,-10 407.5,-30 427.5,-30 427.5,-10 407.5,-10"/>
<text text-anchor="start" x="431.129" y="-15.4" font-family="sans-serif" font-size="14.00" fill="#000000"> &#160;Declarations</text>
<polygon fill="#8dd3c7" stroke="transparent" points="520.5,-10 520.5,-30 540.5,-30 540.5,-10 520.5,-10"/>
<text text-anchor="start" x="544.2251" y="-15.4" font-family="sans-serif" font-size="14.00" fill="#000000"> &#160;Module</text>
<polygon fill="#80b1d3" stroke="transparent" points="606.5,-10 606.5,-30 626.5,-30 626.5,-10 606.5,-10"/>
<text text-anchor="start" x="630.2812" y="-15.4" font-family="sans-serif" font-size="14.00" fill="#000000"> &#160;Bootstrap</text>
<polygon fill="#fdb462" stroke="transparent" points="703.5,-10 703.5,-30 723.5,-30 723.5,-10 703.5,-10"/>
<text text-anchor="start" x="727.1732" y="-15.4" font-family="sans-serif" font-size="14.00" fill="#000000"> &#160;Providers</text>
<polygon fill="#fb8072" stroke="transparent" points="799.5,-10 799.5,-30 819.5,-30 819.5,-10 799.5,-10"/>
<text text-anchor="start" x="823.2258" y="-15.4" font-family="sans-serif" font-size="14.00" fill="#000000"> &#160;Exports</text>
<g id="clust1" class="cluster">
<title>cluster_BlinktDashboardModule</title>
<polygon fill="none" stroke="#000000" stroke-dasharray="1,5" points="8,-70 8,-268 1275,-268 1275,-70 8,-70"/>
</g>
<g id="clust2" class="cluster">
<title>cluster_BlinktDashboardModule_declarations</title>
<polygon fill="none" stroke="#000000" points="647,-78 647,-130 1267,-130 1267,-78 647,-78"/>
</g>
<g id="clust7" class="cluster">
<title>cluster_BlinktDashboardModule_imports</title>
<polygon fill="none" stroke="#000000" points="16,-78 16,-130 639,-130 639,-78 16,-78"/>
</g>
<g id="clust8" class="cluster">
<title>cluster_BlinktDashboardModule_exports</title>
<polygon fill="none" stroke="#000000" points="569,-208 569,-260 731,-260 731,-208 569,-208"/>
</g>
<!-- DashboardComponent -->
<g id="node1" class="node">
<title>DashboardComponent</title>
<polygon fill="#ffffb3" stroke="#000000" points="1258.9734,-122 1117.0266,-122 1117.0266,-86 1258.9734,-86 1258.9734,-122"/>
<text text-anchor="middle" x="1188" y="-99.8" font-family="Times,serif" font-size="14.00" fill="#000000">DashboardComponent</text>
</g>
<!-- BlinktDashboardModule -->
<g id="node5" class="node">
<title>BlinktDashboardModule</title>
<polygon fill="#8dd3c7" stroke="#000000" points="727.6993,-187 724.6993,-191 703.6993,-191 700.6993,-187 572.3007,-187 572.3007,-151 727.6993,-151 727.6993,-187"/>
<text text-anchor="middle" x="650" y="-164.8" font-family="Times,serif" font-size="14.00" fill="#000000">BlinktDashboardModule</text>
</g>
<!-- DashboardComponent&#45;&gt;BlinktDashboardModule -->
<g id="edge1" class="edge">
<title>DashboardComponent&#45;&gt;BlinktDashboardModule</title>
<path fill="none" stroke="#000000" d="M1188,-122.2921C1188,-144.2057 1188,-178 1188,-178 1188,-178 737.6552,-178 737.6552,-178"/>
<polygon fill="#000000" stroke="#000000" points="737.6553,-174.5001 727.6552,-178 737.6552,-181.5001 737.6553,-174.5001"/>
</g>
<!-- LedListComponent -->
<g id="node2" class="node">
<title>LedListComponent</title>
<polygon fill="#ffffb3" stroke="#000000" points="1099.3781,-122 974.6219,-122 974.6219,-86 1099.3781,-86 1099.3781,-122"/>
<text text-anchor="middle" x="1037" y="-99.8" font-family="Times,serif" font-size="14.00" fill="#000000">LedListComponent</text>
</g>
<!-- LedListComponent&#45;&gt;BlinktDashboardModule -->
<g id="edge2" class="edge">
<title>LedListComponent&#45;&gt;BlinktDashboardModule</title>
<path fill="none" stroke="#000000" d="M1037,-122.1061C1037,-141.3391 1037,-169 1037,-169 1037,-169 737.8497,-169 737.8497,-169"/>
<polygon fill="#000000" stroke="#000000" points="737.8497,-165.5001 727.8497,-169 737.8497,-172.5001 737.8497,-165.5001"/>
</g>
<!-- ColorFormComponent -->
<g id="node3" class="node">
<title>ColorFormComponent</title>
<polygon fill="#ffffb3" stroke="#000000" points="956.5547,-122 813.4453,-122 813.4453,-86 956.5547,-86 956.5547,-122"/>
<text text-anchor="middle" x="885" y="-99.8" font-family="Times,serif" font-size="14.00" fill="#000000">ColorFormComponent</text>
</g>
<!-- ColorFormComponent&#45;&gt;BlinktDashboardModule -->
<g id="edge3" class="edge">
<title>ColorFormComponent&#45;&gt;BlinktDashboardModule</title>
<path fill="none" stroke="#000000" d="M885,-122.027C885,-138.3976 885,-160 885,-160 885,-160 737.9252,-160 737.9252,-160"/>
<polygon fill="#000000" stroke="#000000" points="737.9252,-156.5001 727.9252,-160 737.9251,-163.5001 737.9252,-156.5001"/>
</g>
<!-- ActionBarComponent -->
<g id="node4" class="node">
<title>ActionBarComponent</title>
<polygon fill="#ffffb3" stroke="#000000" points="794.647,-122 655.353,-122 655.353,-86 794.647,-86 794.647,-122"/>
<text text-anchor="middle" x="725" y="-99.8" font-family="Times,serif" font-size="14.00" fill="#000000">ActionBarComponent</text>
</g>
<!-- ActionBarComponent&#45;&gt;BlinktDashboardModule -->
<g id="edge4" class="edge">
<title>ActionBarComponent&#45;&gt;BlinktDashboardModule</title>
<path fill="none" stroke="#000000" d="M691.3882,-122.1061C691.3882,-122.1061 691.3882,-140.991 691.3882,-140.991"/>
<polygon fill="#000000" stroke="#000000" points="687.8882,-140.9909 691.3882,-150.991 694.8882,-140.991 687.8882,-140.9909"/>
</g>
<!-- DashboardComponent  -->
<g id="node10" class="node">
<title>DashboardComponent </title>
<polygon fill="#fb8072" stroke="#000000" points="722.9742,-252 577.0258,-252 577.0258,-216 722.9742,-216 722.9742,-252"/>
<text text-anchor="middle" x="650" y="-229.8" font-family="Times,serif" font-size="14.00" fill="#000000">DashboardComponent </text>
</g>
<!-- BlinktDashboardModule&#45;&gt;DashboardComponent  -->
<g id="edge9" class="edge">
<title>BlinktDashboardModule&#45;&gt;DashboardComponent </title>
<path fill="none" stroke="#000000" stroke-dasharray="5,2" d="M650,-187.1061C650,-187.1061 650,-205.991 650,-205.991"/>
<polygon fill="#000000" stroke="#000000" points="646.5001,-205.9909 650,-215.991 653.5001,-205.991 646.5001,-205.9909"/>
</g>
<!-- CommonModule -->
<g id="node6" class="node">
<title>CommonModule</title>
<polygon fill="#8dd3c7" stroke="#000000" points="630.6681,-122 627.6681,-126 606.6681,-126 603.6681,-122 519.3319,-122 519.3319,-86 630.6681,-86 630.6681,-122"/>
<text text-anchor="middle" x="575" y="-99.8" font-family="Times,serif" font-size="14.00" fill="#000000">CommonModule</text>
</g>
<!-- CommonModule&#45;&gt;BlinktDashboardModule -->
<g id="edge5" class="edge">
<title>CommonModule&#45;&gt;BlinktDashboardModule</title>
<path fill="none" stroke="#000000" d="M601.6171,-122.1061C601.6171,-122.1061 601.6171,-140.991 601.6171,-140.991"/>
<polygon fill="#000000" stroke="#000000" points="598.1172,-140.9909 601.6171,-150.991 605.1172,-140.991 598.1172,-140.9909"/>
</g>
<!-- FormsModule -->
<g id="node7" class="node">
<title>FormsModule</title>
<polygon fill="#8dd3c7" stroke="#000000" points="501.8288,-122 498.8288,-126 477.8288,-126 474.8288,-122 406.1712,-122 406.1712,-86 501.8288,-86 501.8288,-122"/>
<text text-anchor="middle" x="454" y="-99.8" font-family="Times,serif" font-size="14.00" fill="#000000">FormsModule</text>
</g>
<!-- FormsModule&#45;&gt;BlinktDashboardModule -->
<g id="edge6" class="edge">
<title>FormsModule&#45;&gt;BlinktDashboardModule</title>
<path fill="none" stroke="#000000" d="M454,-122.027C454,-138.3976 454,-160 454,-160 454,-160 562.2541,-160 562.2541,-160"/>
<polygon fill="#000000" stroke="#000000" points="562.2541,-163.5001 572.2541,-160 562.2541,-156.5001 562.2541,-163.5001"/>
</g>
<!-- BlinktDashboardRoutingModule -->
<g id="node8" class="node">
<title>BlinktDashboardRoutingModule</title>
<polygon fill="#8dd3c7" stroke="#000000" points="388.3173,-122 385.3173,-126 364.3173,-126 361.3173,-122 187.6827,-122 187.6827,-86 388.3173,-86 388.3173,-122"/>
<text text-anchor="middle" x="288" y="-99.8" font-family="Times,serif" font-size="14.00" fill="#000000">BlinktDashboardRoutingModule</text>
</g>
<!-- BlinktDashboardRoutingModule&#45;&gt;BlinktDashboardModule -->
<g id="edge7" class="edge">
<title>BlinktDashboardRoutingModule&#45;&gt;BlinktDashboardModule</title>
<path fill="none" stroke="#000000" d="M288,-122.1061C288,-141.3391 288,-169 288,-169 288,-169 562.3419,-169 562.3419,-169"/>
<polygon fill="#000000" stroke="#000000" points="562.342,-172.5001 572.3419,-169 562.3419,-165.5001 562.342,-172.5001"/>
</g>
<!-- BlinktCommonModule -->
<g id="node9" class="node">
<title>BlinktCommonModule</title>
<polygon fill="#8dd3c7" stroke="#000000" points="170.1764,-122 167.1764,-126 146.1764,-126 143.1764,-122 23.8236,-122 23.8236,-86 170.1764,-86 170.1764,-122"/>
<text text-anchor="middle" x="97" y="-99.8" font-family="Times,serif" font-size="14.00" fill="#000000">BlinktCommonModule</text>
</g>
<!-- BlinktCommonModule&#45;&gt;BlinktDashboardModule -->
<g id="edge8" class="edge">
<title>BlinktCommonModule&#45;&gt;BlinktDashboardModule</title>
<path fill="none" stroke="#000000" d="M97,-122.2921C97,-144.2057 97,-178 97,-178 97,-178 562.2337,-178 562.2337,-178"/>
<polygon fill="#000000" stroke="#000000" points="562.2337,-181.5001 572.2337,-178 562.2336,-174.5001 562.2337,-181.5001"/>
</g>
</g>
</svg>
