<?xml version="1.0" encoding="UTF-8" standalone="no"?>
<!DOCTYPE svg PUBLIC "-//W3C//DTD SVG 1.1//EN"
 "http://www.w3.org/Graphics/SVG/1.1/DTD/svg11.dtd">
<!-- Generated by graphviz version 2.40.1 (20161225.0304)
 -->
<!-- Title: dependencies Pages: 1 -->
<svg width="664pt" height="211pt"
 viewBox="0.00 0.00 664.00 211.00" xmlns="http://www.w3.org/2000/svg" xmlns:xlink="http://www.w3.org/1999/xlink">
<g id="graph0" class="graph" transform="scale(1 1) rotate(0) translate(4 207)">
<title>dependencies</title>
<polygon fill="#ffffff" stroke="transparent" points="-4,4 -4,-207 660,-207 660,4 -4,4"/>
<text text-anchor="start" x="307.0091" y="-42.4" font-family="sans-serif" font-weight="bold" font-size="14.00" fill="#000000">Legend</text>
<polygon fill="#ffffb3" stroke="transparent" points="94,-10 94,-30 114,-30 114,-10 94,-10"/>
<text text-anchor="start" x="117.629" y="-15.4" font-family="sans-serif" font-size="14.00" fill="#000000"> &#160;Declarations</text>
<polygon fill="#8dd3c7" stroke="transparent" points="207,-10 207,-30 227,-30 227,-10 207,-10"/>
<text text-anchor="start" x="230.7251" y="-15.4" font-family="sans-serif" font-size="14.00" fill="#000000"> &#160;Module</text>
<polygon fill="#80b1d3" stroke="transparent" points="293,-10 293,-30 313,-30 313,-10 293,-10"/>
<text text-anchor="start" x="316.7812" y="-15.4" font-family="sans-serif" font-size="14.00" fill="#000000"> &#160;Bootstrap</text>
<polygon fill="#fdb462" stroke="transparent" points="390,-10 390,-30 410,-30 410,-10 390,-10"/>
<text text-anchor="start" x="413.6732" y="-15.4" font-family="sans-serif" font-size="14.00" fill="#000000"> &#160;Providers</text>
<polygon fill="#fb8072" stroke="transparent" points="486,-10 486,-30 506,-30 506,-10 486,-10"/>
<text text-anchor="start" x="509.7258" y="-15.4" font-family="sans-serif" font-size="14.00" fill="#000000"> &#160;Exports</text>
<g id="clust1" class="cluster">
<title>cluster_BlinktDetailModule</title>
<polygon fill="none" stroke="#000000" stroke-dasharray="1,5" points="8,-70 8,-195 648,-195 648,-70 8,-70"/>
</g>
<g id="clust2" class="cluster">
<title>cluster_BlinktDetailModule_declarations</title>
<polygon fill="none" stroke="#000000" points="508,-78 508,-130 640,-130 640,-78 508,-78"/>
</g>
<g id="clust4" class="cluster">
<title>cluster_BlinktDetailModule_imports</title>
<polygon fill="none" stroke="#000000" points="16,-78 16,-130 500,-130 500,-78 16,-78"/>
</g>
<!-- DetailComponent -->
<g id="node1" class="node">
<title>DetailComponent</title>
<polygon fill="#ffffb3" stroke="#000000" points="631.5409,-122 516.4591,-122 516.4591,-86 631.5409,-86 631.5409,-122"/>
<text text-anchor="middle" x="574" y="-99.8" font-family="Times,serif" font-size="14.00" fill="#000000">DetailComponent</text>
</g>
<!-- BlinktDetailModule -->
<g id="node2" class="node">
<title>BlinktDetailModule</title>
<polygon fill="#8dd3c7" stroke="#000000" points="419.266,-187 416.266,-191 395.266,-191 392.266,-187 290.734,-187 290.734,-151 419.266,-151 419.266,-187"/>
<text text-anchor="middle" x="355" y="-164.8" font-family="Times,serif" font-size="14.00" fill="#000000">BlinktDetailModule</text>
</g>
<!-- DetailComponent&#45;&gt;BlinktDetailModule -->
<g id="edge1" class="edge">
<title>DetailComponent&#45;&gt;BlinktDetailModule</title>
<path fill="none" stroke="#000000" d="M574,-122.1061C574,-141.3391 574,-169 574,-169 574,-169 429.5227,-169 429.5227,-169"/>
<polygon fill="#000000" stroke="#000000" points="429.5228,-165.5001 419.5227,-169 429.5227,-172.5001 429.5228,-165.5001"/>
</g>
<!-- CommonModule -->
<g id="node3" class="node">
<title>CommonModule</title>
<polygon fill="#8dd3c7" stroke="#000000" points="491.6681,-122 488.6681,-126 467.6681,-126 464.6681,-122 380.3319,-122 380.3319,-86 491.6681,-86 491.6681,-122"/>
<text text-anchor="middle" x="436" y="-99.8" font-family="Times,serif" font-size="14.00" fill="#000000">CommonModule</text>
</g>
<!-- CommonModule&#45;&gt;BlinktDetailModule -->
<g id="edge2" class="edge">
<title>CommonModule&#45;&gt;BlinktDetailModule</title>
<path fill="none" stroke="#000000" d="M399.7745,-122.1061C399.7745,-122.1061 399.7745,-140.991 399.7745,-140.991"/>
<polygon fill="#000000" stroke="#000000" points="396.2746,-140.9909 399.7745,-150.991 403.2746,-140.991 396.2746,-140.9909"/>
</g>
<!-- BlinktDetailRoutingModule -->
<g id="node4" class="node">
<title>BlinktDetailRoutingModule</title>
<polygon fill="#8dd3c7" stroke="#000000" points="361.8836,-122 358.8836,-126 337.8836,-126 334.8836,-122 188.1164,-122 188.1164,-86 361.8836,-86 361.8836,-122"/>
<text text-anchor="middle" x="275" y="-99.8" font-family="Times,serif" font-size="14.00" fill="#000000">BlinktDetailRoutingModule</text>
</g>
<!-- BlinktDetailRoutingModule&#45;&gt;BlinktDetailModule -->
<g id="edge3" class="edge">
<title>BlinktDetailRoutingModule&#45;&gt;BlinktDetailModule</title>
<path fill="none" stroke="#000000" d="M326.2795,-122.1061C326.2795,-122.1061 326.2795,-140.991 326.2795,-140.991"/>
<polygon fill="#000000" stroke="#000000" points="322.7795,-140.9909 326.2795,-150.991 329.7795,-140.991 322.7795,-140.9909"/>
</g>
<!-- BlinktCommonModule -->
<g id="node5" class="node">
<title>BlinktCommonModule</title>
<polygon fill="#8dd3c7" stroke="#000000" points="170.1764,-122 167.1764,-126 146.1764,-126 143.1764,-122 23.8236,-122 23.8236,-86 170.1764,-86 170.1764,-122"/>
<text text-anchor="middle" x="97" y="-99.8" font-family="Times,serif" font-size="14.00" fill="#000000">BlinktCommonModule</text>
</g>
<!-- BlinktCommonModule&#45;&gt;BlinktDetailModule -->
<g id="edge4" class="edge">
<title>BlinktCommonModule&#45;&gt;BlinktDetailModule</title>
<path fill="none" stroke="#000000" d="M97,-122.1061C97,-141.3391 97,-169 97,-169 97,-169 280.5612,-169 280.5612,-169"/>
<polygon fill="#000000" stroke="#000000" points="280.5613,-172.5001 290.5612,-169 280.5612,-165.5001 280.5613,-172.5001"/>
</g>
</g>
</svg>
