<?xml version="1.0" encoding="UTF-8" standalone="no"?>
<!DOCTYPE svg PUBLIC "-//W3C//DTD SVG 1.1//EN"
 "http://www.w3.org/Graphics/SVG/1.1/DTD/svg11.dtd">
<!-- Generated by graphviz version 2.40.1 (20161225.0304)
 -->
<!-- Title: dependencies Pages: 1 -->
<svg width="1130pt" height="284pt"
 viewBox="0.00 0.00 1130.00 284.00" xmlns="http://www.w3.org/2000/svg" xmlns:xlink="http://www.w3.org/1999/xlink">
<g id="graph0" class="graph" transform="scale(1 1) rotate(0) translate(4 280)">
<title>dependencies</title>
<polygon fill="#ffffff" stroke="transparent" points="-4,4 -4,-280 1126,-280 1126,4 -4,4"/>
<text text-anchor="start" x="540.0091" y="-42.4" font-family="sans-serif" font-weight="bold" font-size="14.00" fill="#000000">Legend</text>
<polygon fill="#ffffb3" stroke="transparent" points="327,-10 327,-30 347,-30 347,-10 327,-10"/>
<text text-anchor="start" x="350.629" y="-15.4" font-family="sans-serif" font-size="14.00" fill="#000000"> &#160;Declarations</text>
<polygon fill="#8dd3c7" stroke="transparent" points="440,-10 440,-30 460,-30 460,-10 440,-10"/>
<text text-anchor="start" x="463.7251" y="-15.4" font-family="sans-serif" font-size="14.00" fill="#000000"> &#160;Module</text>
<polygon fill="#80b1d3" stroke="transparent" points="526,-10 526,-30 546,-30 546,-10 526,-10"/>
<text text-anchor="start" x="549.7812" y="-15.4" font-family="sans-serif" font-size="14.00" fill="#000000"> &#160;Bootstrap</text>
<polygon fill="#fdb462" stroke="transparent" points="623,-10 623,-30 643,-30 643,-10 623,-10"/>
<text text-anchor="start" x="646.6732" y="-15.4" font-family="sans-serif" font-size="14.00" fill="#000000"> &#160;Providers</text>
<polygon fill="#fb8072" stroke="transparent" points="719,-10 719,-30 739,-30 739,-10 719,-10"/>
<text text-anchor="start" x="742.7258" y="-15.4" font-family="sans-serif" font-size="14.00" fill="#000000"> &#160;Exports</text>
<g id="clust1" class="cluster">
<title>cluster_BlinktCommonModule</title>
<polygon fill="none" stroke="#000000" stroke-dasharray="1,5" points="8,-70 8,-268 1114,-268 1114,-70 8,-70"/>
</g>
<g id="clust2" class="cluster">
<title>cluster_BlinktCommonModule_declarations</title>
<polygon fill="none" stroke="#000000" points="722,-78 722,-130 1106,-130 1106,-78 722,-78"/>
</g>
<g id="clust6" class="cluster">
<title>cluster_BlinktCommonModule_imports</title>
<polygon fill="none" stroke="#000000" points="450,-78 450,-130 714,-130 714,-78 450,-78"/>
</g>
<g id="clust7" class="cluster">
<title>cluster_BlinktCommonModule_exports</title>
<polygon fill="none" stroke="#000000" points="580,-208 580,-260 845,-260 845,-208 580,-208"/>
</g>
<g id="clust9" class="cluster">
<title>cluster_BlinktCommonModule_providers</title>
<polygon fill="none" stroke="#000000" points="16,-78 16,-130 442,-130 442,-78 16,-78"/>
</g>
<!-- LedComponent -->
<g id="node1" class="node">
<title>LedComponent</title>
<polygon fill="#ffffb3" stroke="#000000" points="1097.5996,-122 994.4004,-122 994.4004,-86 1097.5996,-86 1097.5996,-122"/>
<text text-anchor="middle" x="1046" y="-99.8" font-family="Times,serif" font-size="14.00" fill="#000000">LedComponent</text>
</g>
<!-- BlinktCommonModule -->
<g id="node4" class="node">
<title>BlinktCommonModule</title>
<polygon fill="#8dd3c7" stroke="#000000" points="790.1764,-187 787.1764,-191 766.1764,-191 763.1764,-187 643.8236,-187 643.8236,-151 790.1764,-151 790.1764,-187"/>
<text text-anchor="middle" x="717" y="-164.8" font-family="Times,serif" font-size="14.00" fill="#000000">BlinktCommonModule</text>
</g>
<!-- LedComponent&#45;&gt;BlinktCommonModule -->
<g id="edge1" class="edge">
<title>LedComponent&#45;&gt;BlinktCommonModule</title>
<path fill="none" stroke="#000000" d="M1046,-122.2843C1046,-143.3211 1046,-175 1046,-175 1046,-175 800.4245,-175 800.4245,-175"/>
<polygon fill="#000000" stroke="#000000" points="800.4246,-171.5001 790.4245,-175 800.4245,-178.5001 800.4246,-171.5001"/>
</g>
<!-- LoaderComponent -->
<g id="node2" class="node">
<title>LoaderComponent</title>
<polygon fill="#ffffb3" stroke="#000000" points="976.4748,-122 855.5252,-122 855.5252,-86 976.4748,-86 976.4748,-122"/>
<text text-anchor="middle" x="916" y="-99.8" font-family="Times,serif" font-size="14.00" fill="#000000">LoaderComponent</text>
</g>
<!-- LoaderComponent&#45;&gt;BlinktCommonModule -->
<g id="edge2" class="edge">
<title>LoaderComponent&#45;&gt;BlinktCommonModule</title>
<path fill="none" stroke="#000000" d="M916,-122.0225C916,-139.3734 916,-163 916,-163 916,-163 800.2525,-163 800.2525,-163"/>
<polygon fill="#000000" stroke="#000000" points="800.2525,-159.5001 790.2525,-163 800.2524,-166.5001 800.2525,-159.5001"/>
</g>
<!-- BlinktColorPipe -->
<g id="node3" class="node">
<title>BlinktColorPipe</title>
<polygon fill="#ffffb3" stroke="#000000" points="837.7842,-122 730.2158,-122 730.2158,-86 837.7842,-86 837.7842,-122"/>
<text text-anchor="middle" x="784" y="-99.8" font-family="Times,serif" font-size="14.00" fill="#000000">BlinktColorPipe</text>
</g>
<!-- BlinktColorPipe&#45;&gt;BlinktCommonModule -->
<g id="edge3" class="edge">
<title>BlinktColorPipe&#45;&gt;BlinktCommonModule</title>
<path fill="none" stroke="#000000" d="M760.223,-122.1061C760.223,-122.1061 760.223,-140.991 760.223,-140.991"/>
<polygon fill="#000000" stroke="#000000" points="756.7231,-140.9909 760.223,-150.991 763.7231,-140.991 756.7231,-140.9909"/>
</g>
<!-- LedComponent  -->
<g id="node7" class="node">
<title>LedComponent </title>
<polygon fill="#fb8072" stroke="#000000" points="837.1003,-252 730.8997,-252 730.8997,-216 837.1003,-216 837.1003,-252"/>
<text text-anchor="middle" x="784" y="-229.8" font-family="Times,serif" font-size="14.00" fill="#000000">LedComponent </text>
</g>
<!-- BlinktCommonModule&#45;&gt;LedComponent  -->
<g id="edge6" class="edge">
<title>BlinktCommonModule&#45;&gt;LedComponent </title>
<path fill="none" stroke="#000000" stroke-dasharray="5,2" d="M760.5191,-187.1061C760.5191,-187.1061 760.5191,-205.991 760.5191,-205.991"/>
<polygon fill="#000000" stroke="#000000" points="757.0192,-205.9909 760.5191,-215.991 764.0192,-205.991 757.0192,-205.9909"/>
</g>
<!-- LoaderComponent  -->
<g id="node8" class="node">
<title>LoaderComponent </title>
<polygon fill="#fb8072" stroke="#000000" points="712.4757,-252 587.5243,-252 587.5243,-216 712.4757,-216 712.4757,-252"/>
<text text-anchor="middle" x="650" y="-229.8" font-family="Times,serif" font-size="14.00" fill="#000000">LoaderComponent </text>
</g>
<!-- BlinktCommonModule&#45;&gt;LoaderComponent  -->
<g id="edge7" class="edge">
<title>BlinktCommonModule&#45;&gt;LoaderComponent </title>
<path fill="none" stroke="#000000" stroke-dasharray="5,2" d="M677.9497,-187.1061C677.9497,-187.1061 677.9497,-205.991 677.9497,-205.991"/>
<polygon fill="#000000" stroke="#000000" points="674.4498,-205.9909 677.9497,-215.991 681.4498,-205.991 674.4498,-205.9909"/>
</g>
<!-- CommonModule -->
<g id="node5" class="node">
<title>CommonModule</title>
<polygon fill="#8dd3c7" stroke="#000000" points="705.6681,-122 702.6681,-126 681.6681,-126 678.6681,-122 594.3319,-122 594.3319,-86 705.6681,-86 705.6681,-122"/>
<text text-anchor="middle" x="650" y="-99.8" font-family="Times,serif" font-size="14.00" fill="#000000">CommonModule</text>
</g>
<!-- CommonModule&#45;&gt;BlinktCommonModule -->
<g id="edge4" class="edge">
<title>CommonModule&#45;&gt;BlinktCommonModule</title>
<path fill="none" stroke="#000000" d="M674.7479,-122.1061C674.7479,-122.1061 674.7479,-140.991 674.7479,-140.991"/>
<polygon fill="#000000" stroke="#000000" points="671.248,-140.9909 674.7479,-150.991 678.248,-140.991 671.248,-140.9909"/>
</g>
<!-- HttpClientModule -->
<g id="node6" class="node">
<title>HttpClientModule</title>
<polygon fill="#8dd3c7" stroke="#000000" points="576.1611,-122 573.1611,-126 552.1611,-126 549.1611,-122 457.8389,-122 457.8389,-86 576.1611,-86 576.1611,-122"/>
<text text-anchor="middle" x="517" y="-99.8" font-family="Times,serif" font-size="14.00" fill="#000000">HttpClientModule</text>
</g>
<!-- HttpClientModule&#45;&gt;BlinktCommonModule -->
<g id="edge5" class="edge">
<title>HttpClientModule&#45;&gt;BlinktCommonModule</title>
<path fill="none" stroke="#000000" d="M517,-122.0225C517,-139.3734 517,-163 517,-163 517,-163 633.663,-163 633.663,-163"/>
<polygon fill="#000000" stroke="#000000" points="633.6631,-166.5001 643.663,-163 633.663,-159.5001 633.6631,-166.5001"/>
</g>
<!-- { provide: ColorService, useClass: ColorService } -->
<g id="node9" class="node">
<title>{ provide: ColorService, useClass: ColorService }</title>
<ellipse fill="#fdb462" stroke="#000000" cx="229" cy="-104" rx="205.2033" ry="18"/>
<text text-anchor="middle" x="229" y="-99.8" font-family="Times,serif" font-size="14.00" fill="#000000">{ provide: ColorService, useClass: ColorService }</text>
</g>
<!-- { provide: ColorService, useClass: ColorService }&#45;&gt;BlinktCommonModule -->
<g id="edge8" class="edge">
<title>{ provide: ColorService, useClass: ColorService }&#45;&gt;BlinktCommonModule</title>
<path fill="none" stroke="#000000" d="M229,-122.2843C229,-143.3211 229,-175 229,-175 229,-175 633.6775,-175 633.6775,-175"/>
<polygon fill="#000000" stroke="#000000" points="633.6775,-178.5001 643.6775,-175 633.6774,-171.5001 633.6775,-178.5001"/>
</g>
</g>
</svg>
