<?xml version="1.0" encoding="UTF-8" standalone="no"?>
<!DOCTYPE svg PUBLIC "-//W3C//DTD SVG 1.1//EN"
 "http://www.w3.org/Graphics/SVG/1.1/DTD/svg11.dtd">
<!-- Generated by graphviz version 2.40.1 (20161225.0304)
 -->
<!-- Title: dependencies Pages: 1 -->
<svg width="2458pt" height="436pt"
 viewBox="0.00 0.00 2458.00 436.00" xmlns="http://www.w3.org/2000/svg" xmlns:xlink="http://www.w3.org/1999/xlink">
<g id="graph0" class="graph" transform="scale(1 1) rotate(0) translate(4 432)">
<title>dependencies</title>
<polygon fill="#ffffff" stroke="transparent" points="-4,4 -4,-432 2454,-432 2454,4 -4,4"/>
<text text-anchor="start" x="1204.0091" y="-42.4" font-family="sans-serif" font-weight="bold" font-size="14.00" fill="#000000">Legend</text>
<polygon fill="#ffffb3" stroke="transparent" points="991,-10 991,-30 1011,-30 1011,-10 991,-10"/>
<text text-anchor="start" x="1014.629" y="-15.4" font-family="sans-serif" font-size="14.00" fill="#000000"> &#160;Declarations</text>
<polygon fill="#8dd3c7" stroke="transparent" points="1104,-10 1104,-30 1124,-30 1124,-10 1104,-10"/>
<text text-anchor="start" x="1127.7251" y="-15.4" font-family="sans-serif" font-size="14.00" fill="#000000"> &#160;Module</text>
<polygon fill="#80b1d3" stroke="transparent" points="1190,-10 1190,-30 1210,-30 1210,-10 1190,-10"/>
<text text-anchor="start" x="1213.7812" y="-15.4" font-family="sans-serif" font-size="14.00" fill="#000000"> &#160;Bootstrap</text>
<polygon fill="#fdb462" stroke="transparent" points="1287,-10 1287,-30 1307,-30 1307,-10 1287,-10"/>
<text text-anchor="start" x="1310.6732" y="-15.4" font-family="sans-serif" font-size="14.00" fill="#000000"> &#160;Providers</text>
<polygon fill="#fb8072" stroke="transparent" points="1383,-10 1383,-30 1403,-30 1403,-10 1383,-10"/>
<text text-anchor="start" x="1406.7258" y="-15.4" font-family="sans-serif" font-size="14.00" fill="#000000"> &#160;Exports</text>
<g id="clust1" class="cluster">
<title>cluster_AppModule</title>
<polygon fill="none" stroke="#000000" stroke-dasharray="1,5" points="1676,-146 1676,-420 2256,-420 2256,-146 1676,-146"/>
</g>
<g id="clust2" class="cluster">
<title>cluster_AppModule_declarations</title>
<polygon fill="none" stroke="#000000" points="2126,-230 2126,-282 2248,-282 2248,-230 2126,-230"/>
</g>
<g id="clust4" class="cluster">
<title>cluster_AppModule_imports</title>
<polygon fill="none" stroke="#000000" points="1684,-154 1684,-282 2118,-282 2118,-154 1684,-154"/>
</g>
<g id="clust6" class="cluster">
<title>cluster_AppModule_bootstrap</title>
<polygon fill="none" stroke="#000000" points="1850,-360 1850,-412 1974,-412 1974,-360 1850,-360"/>
</g>
<g id="clust8" class="cluster">
<title>cluster_AppRoutingModule</title>
<polygon fill="none" stroke="#000000" stroke-dasharray="1,5" points="871,-222 871,-290 1207,-290 1207,-222 871,-222"/>
</g>
<g id="clust10" class="cluster">
<title>cluster_AppRoutingModule_imports</title>
<polygon fill="none" stroke="#000000" points="1005,-230 1005,-282 1199,-282 1199,-230 1005,-230"/>
</g>
<g id="clust11" class="cluster">
<title>cluster_AppRoutingModule_exports</title>
<polygon fill="none" stroke="#000000" points="879,-230 879,-282 997,-282 997,-230 879,-230"/>
</g>
<g id="clust14" class="cluster">
<title>cluster_BlinktCommonModule</title>
<polygon fill="none" stroke="#000000" stroke-dasharray="1,5" points="1063,-70 1063,-138 2442,-138 2442,-70 1063,-70"/>
</g>
<g id="clust15" class="cluster">
<title>cluster_BlinktCommonModule_declarations</title>
<polygon fill="none" stroke="#000000" points="2050,-78 2050,-130 2434,-130 2434,-78 2050,-78"/>
</g>
<g id="clust19" class="cluster">
<title>cluster_BlinktCommonModule_imports</title>
<polygon fill="none" stroke="#000000" points="1778,-78 1778,-130 2042,-130 2042,-78 1778,-78"/>
</g>
<g id="clust20" class="cluster">
<title>cluster_BlinktCommonModule_exports</title>
<polygon fill="none" stroke="#000000" points="1505,-78 1505,-130 1770,-130 1770,-78 1505,-78"/>
</g>
<g id="clust22" class="cluster">
<title>cluster_BlinktCommonModule_providers</title>
<polygon fill="none" stroke="#000000" points="1071,-78 1071,-130 1497,-130 1497,-78 1071,-78"/>
</g>
<g id="clust23" class="cluster">
<title>cluster_BlinktDashboardModule</title>
<polygon fill="none" stroke="#000000" stroke-dasharray="1,5" points="362,-146 362,-214 1668,-214 1668,-146 362,-146"/>
</g>
<g id="clust24" class="cluster">
<title>cluster_BlinktDashboardModule_declarations</title>
<polygon fill="none" stroke="#000000" points="870,-154 870,-206 1490,-206 1490,-154 870,-154"/>
</g>
<g id="clust29" class="cluster">
<title>cluster_BlinktDashboardModule_imports</title>
<polygon fill="none" stroke="#000000" points="370,-154 370,-206 862,-206 862,-154 370,-154"/>
</g>
<g id="clust30" class="cluster">
<title>cluster_BlinktDashboardModule_exports</title>
<polygon fill="none" stroke="#000000" points="1498,-154 1498,-206 1660,-206 1660,-154 1498,-154"/>
</g>
<g id="clust33" class="cluster">
<title>cluster_BlinktDashboardRoutingModule</title>
<polygon fill="none" stroke="#000000" stroke-dasharray="1,5" points="257,-70 257,-138 471,-138 471,-70 257,-70"/>
</g>
<g id="clust35" class="cluster">
<title>cluster_BlinktDashboardRoutingModule_imports</title>
<polygon fill="none" stroke="#000000" points="265,-78 265,-130 463,-130 463,-78 265,-78"/>
</g>
<g id="clust39" class="cluster">
<title>cluster_BlinktDetailModule</title>
<polygon fill="none" stroke="#000000" stroke-dasharray="1,5" points="8,-146 8,-282 354,-282 354,-146 8,-146"/>
</g>
<g id="clust40" class="cluster">
<title>cluster_BlinktDetailModule_declarations</title>
<polygon fill="none" stroke="#000000" points="16,-154 16,-206 148,-206 148,-154 16,-154"/>
</g>
<g id="clust42" class="cluster">
<title>cluster_BlinktDetailModule_imports</title>
<polygon fill="none" stroke="#000000" points="156,-154 156,-206 346,-206 346,-154 156,-154"/>
</g>
<!-- AppComponent -->
<g id="node1" class="node">
<title>AppComponent</title>
<polygon fill="#ffffb3" stroke="#000000" points="2239.9399,-274 2134.0601,-274 2134.0601,-238 2239.9399,-238 2239.9399,-274"/>
<text text-anchor="middle" x="2187" y="-251.8" font-family="Times,serif" font-size="14.00" fill="#000000">AppComponent</text>
</g>
<!-- AppModule -->
<g id="node2" class="node">
<title>AppModule</title>
<polygon fill="#8dd3c7" stroke="#000000" points="1953.6571,-339 1950.6571,-343 1929.6571,-343 1926.6571,-339 1870.3429,-339 1870.3429,-303 1953.6571,-303 1953.6571,-339"/>
<text text-anchor="middle" x="1912" y="-316.8" font-family="Times,serif" font-size="14.00" fill="#000000">AppModule</text>
</g>
<!-- AppComponent&#45;&gt;AppModule -->
<g id="edge1" class="edge">
<title>AppComponent&#45;&gt;AppModule</title>
<path fill="none" stroke="#000000" d="M2134.002,-256C2060.6452,-256 1937.0969,-256 1937.0969,-256 1937.0969,-256 1937.0969,-292.8939 1937.0969,-292.8939"/>
<polygon fill="#000000" stroke="#000000" points="1933.597,-292.8938 1937.0969,-302.8939 1940.597,-292.8939 1933.597,-292.8938"/>
</g>
<!-- AppComponent  -->
<g id="node7" class="node">
<title>AppComponent </title>
<polygon fill="#80b1d3" stroke="#000000" points="1966.439,-404 1857.561,-404 1857.561,-368 1966.439,-368 1966.439,-404"/>
<text text-anchor="middle" x="1912" y="-381.8" font-family="Times,serif" font-size="14.00" fill="#000000">AppComponent </text>
</g>
<!-- AppModule&#45;&gt;AppComponent  -->
<g id="edge6" class="edge">
<title>AppModule&#45;&gt;AppComponent </title>
<path fill="none" stroke="#000000" stroke-dasharray="1,5" d="M1912,-339.1061C1912,-339.1061 1912,-357.991 1912,-357.991"/>
<polygon fill="#000000" stroke="#000000" points="1908.5001,-357.9909 1912,-367.991 1915.5001,-357.991 1908.5001,-357.9909"/>
</g>
<!-- BrowserModule -->
<g id="node3" class="node">
<title>BrowserModule</title>
<polygon fill="#8dd3c7" stroke="#000000" points="2110.4734,-198 2107.4734,-202 2086.4734,-202 2083.4734,-198 2003.5266,-198 2003.5266,-162 2110.4734,-162 2110.4734,-198"/>
<text text-anchor="middle" x="2057" y="-175.8" font-family="Times,serif" font-size="14.00" fill="#000000">BrowserModule</text>
</g>
<!-- BrowserModule&#45;&gt;AppModule -->
<g id="edge2" class="edge">
<title>BrowserModule&#45;&gt;AppModule</title>
<path fill="none" stroke="#000000" d="M2057,-198.1446C2057,-236.2265 2057,-321 2057,-321 2057,-321 1963.94,-321 1963.94,-321"/>
<polygon fill="#000000" stroke="#000000" points="1963.94,-317.5001 1953.94,-321 1963.94,-324.5001 1963.94,-317.5001"/>
</g>
<!-- AppRoutingModule -->
<g id="node4" class="node">
<title>AppRoutingModule</title>
<polygon fill="#8dd3c7" stroke="#000000" points="1820.2744,-198 1817.2744,-202 1796.2744,-202 1793.2744,-198 1691.7256,-198 1691.7256,-162 1820.2744,-162 1820.2744,-198"/>
<text text-anchor="middle" x="1756" y="-175.8" font-family="Times,serif" font-size="14.00" fill="#000000">AppRoutingModule</text>
</g>
<!-- AppRoutingModule&#45;&gt;AppModule -->
<g id="edge3" class="edge">
<title>AppRoutingModule&#45;&gt;AppModule</title>
<path fill="none" stroke="#000000" d="M1804.3888,-198.1432C1804.3888,-204.4611 1804.3888,-210 1804.3888,-210 1804.3888,-210 1903.6344,-210 1903.6344,-210 1903.6344,-210 1903.6344,-292.6706 1903.6344,-292.6706"/>
<polygon fill="#000000" stroke="#000000" points="1900.1345,-292.6706 1903.6344,-302.6706 1907.1345,-292.6706 1900.1345,-292.6706"/>
</g>
<!-- RouterModule  -->
<g id="node9" class="node">
<title>RouterModule </title>
<polygon fill="#fb8072" stroke="#000000" points="988.6523,-274 887.3477,-274 887.3477,-238 988.6523,-238 988.6523,-274"/>
<text text-anchor="middle" x="938" y="-251.8" font-family="Times,serif" font-size="14.00" fill="#000000">RouterModule </text>
</g>
<!-- AppRoutingModule&#45;&gt;RouterModule  -->
<g id="edge8" class="edge">
<title>AppRoutingModule&#45;&gt;RouterModule </title>
<path fill="none" stroke="#000000" stroke-dasharray="5,2" d="M1772.3921,-198.2819C1772.3921,-213.9478 1772.3921,-234 1772.3921,-234 1772.3921,-234 938,-234 938,-234 938,-234 938,-234.3832 938,-234.3832"/>
<polygon fill="#000000" stroke="#000000" points="934.5003,-227.832 938,-237.8321 941.5003,-227.8322 934.5003,-227.832"/>
</g>
<!-- BlinktDashboardModule -->
<g id="node5" class="node">
<title>BlinktDashboardModule</title>
<polygon fill="#8dd3c7" stroke="#000000" points="1847.6993,-274 1844.6993,-278 1823.6993,-278 1820.6993,-274 1692.3007,-274 1692.3007,-238 1847.6993,-238 1847.6993,-274"/>
<text text-anchor="middle" x="1770" y="-251.8" font-family="Times,serif" font-size="14.00" fill="#000000">BlinktDashboardModule</text>
</g>
<!-- BlinktDashboardModule&#45;&gt;AppModule -->
<g id="edge4" class="edge">
<title>BlinktDashboardModule&#45;&gt;AppModule</title>
<path fill="none" stroke="#000000" d="M1847.6508,-265C1869.243,-265 1886.9031,-265 1886.9031,-265 1886.9031,-265 1886.9031,-292.973 1886.9031,-292.973"/>
<polygon fill="#000000" stroke="#000000" points="1883.4032,-292.973 1886.9031,-302.973 1890.4032,-292.973 1883.4032,-292.973"/>
</g>
<!-- DashboardComponent  -->
<g id="node25" class="node">
<title>DashboardComponent </title>
<polygon fill="#fb8072" stroke="#000000" points="1651.9742,-198 1506.0258,-198 1506.0258,-162 1651.9742,-162 1651.9742,-198"/>
<text text-anchor="middle" x="1579" y="-175.8" font-family="Times,serif" font-size="14.00" fill="#000000">DashboardComponent </text>
</g>
<!-- BlinktDashboardModule&#45;&gt;DashboardComponent  -->
<g id="edge26" class="edge">
<title>BlinktDashboardModule&#45;&gt;DashboardComponent </title>
<path fill="none" stroke="#000000" stroke-dasharray="5,2" d="M1692.313,-253C1639.4336,-253 1579,-253 1579,-253 1579,-253 1579,-208.0449 1579,-208.0449"/>
<polygon fill="#000000" stroke="#000000" points="1582.5001,-208.0449 1579,-198.0449 1575.5001,-208.045 1582.5001,-208.0449"/>
</g>
<!-- BlinktCommonModule -->
<g id="node6" class="node">
<title>BlinktCommonModule</title>
<polygon fill="#8dd3c7" stroke="#000000" points="1985.1764,-198 1982.1764,-202 1961.1764,-202 1958.1764,-198 1838.8236,-198 1838.8236,-162 1985.1764,-162 1985.1764,-198"/>
<text text-anchor="middle" x="1912" y="-175.8" font-family="Times,serif" font-size="14.00" fill="#000000">BlinktCommonModule</text>
</g>
<!-- BlinktCommonModule&#45;&gt;AppModule -->
<g id="edge5" class="edge">
<title>BlinktCommonModule&#45;&gt;AppModule</title>
<path fill="none" stroke="#000000" d="M1920.3656,-198.1446C1920.3656,-198.1446 1920.3656,-292.925 1920.3656,-292.925"/>
<polygon fill="#000000" stroke="#000000" points="1916.8657,-292.925 1920.3656,-302.925 1923.8657,-292.925 1916.8657,-292.925"/>
</g>
<!-- BlinktCommonModule&#45;&gt;BlinktDashboardModule -->
<g id="edge25" class="edge">
<title>BlinktCommonModule&#45;&gt;BlinktDashboardModule</title>
<path fill="none" stroke="#000000" d="M1844.6204,-198.0109C1844.6204,-198.0109 1844.6204,-227.855 1844.6204,-227.855"/>
<polygon fill="#000000" stroke="#000000" points="1841.1205,-227.8549 1844.6204,-237.855 1848.1205,-227.855 1841.1205,-227.8549"/>
</g>
<!-- LedComponent  -->
<g id="node15" class="node">
<title>LedComponent </title>
<polygon fill="#fb8072" stroke="#000000" points="1762.1003,-122 1655.8997,-122 1655.8997,-86 1762.1003,-86 1762.1003,-122"/>
<text text-anchor="middle" x="1709" y="-99.8" font-family="Times,serif" font-size="14.00" fill="#000000">LedComponent </text>
</g>
<!-- BlinktCommonModule&#45;&gt;LedComponent  -->
<g id="edge14" class="edge">
<title>BlinktCommonModule&#45;&gt;LedComponent </title>
<path fill="none" stroke="#000000" stroke-dasharray="5,2" d="M1878.063,-161.8129C1878.063,-146.8176 1878.063,-128 1878.063,-128 1878.063,-128 1726.9564,-128 1726.9564,-128 1726.9564,-128 1726.9564,-127.419 1726.9564,-127.419"/>
<polygon fill="#000000" stroke="#000000" points="1730.4565,-132.1902 1726.9564,-122.1903 1723.4565,-132.1903 1730.4565,-132.1902"/>
</g>
<!-- LoaderComponent  -->
<g id="node16" class="node">
<title>LoaderComponent </title>
<polygon fill="#fb8072" stroke="#000000" points="1637.4757,-122 1512.5243,-122 1512.5243,-86 1637.4757,-86 1637.4757,-122"/>
<text text-anchor="middle" x="1575" y="-99.8" font-family="Times,serif" font-size="14.00" fill="#000000">LoaderComponent </text>
</g>
<!-- BlinktCommonModule&#45;&gt;LoaderComponent  -->
<g id="edge15" class="edge">
<title>BlinktCommonModule&#45;&gt;LoaderComponent </title>
<path fill="none" stroke="#000000" stroke-dasharray="5,2" d="M1864.9293,-161.8196C1864.9293,-148.9618 1864.9293,-134 1864.9293,-134 1864.9293,-134 1575,-134 1575,-134 1575,-134 1575,-132.1432 1575,-132.1432"/>
<polygon fill="#000000" stroke="#000000" points="1578.5001,-132.1432 1575,-122.1432 1571.5001,-132.1432 1578.5001,-132.1432"/>
</g>
<!-- BlinktDetailModule -->
<g id="node28" class="node">
<title>BlinktDetailModule</title>
<polygon fill="#8dd3c7" stroke="#000000" points="230.266,-274 227.266,-278 206.266,-278 203.266,-274 101.734,-274 101.734,-238 230.266,-238 230.266,-274"/>
<text text-anchor="middle" x="166" y="-251.8" font-family="Times,serif" font-size="14.00" fill="#000000">BlinktDetailModule</text>
</g>
<!-- BlinktCommonModule&#45;&gt;BlinktDetailModule -->
<g id="edge32" class="edge">
<title>BlinktCommonModule&#45;&gt;BlinktDetailModule</title>
<path fill="none" stroke="#000000" d="M1841.6412,-198.1679C1841.6412,-200.4478 1841.6412,-202 1841.6412,-202 1841.6412,-202 197.2206,-202 197.2206,-202 197.2206,-202 197.2206,-227.7181 197.2206,-227.7181"/>
<polygon fill="#000000" stroke="#000000" points="193.7206,-227.718 197.2206,-237.7181 200.7206,-227.7181 193.7206,-227.718"/>
</g>
<!-- RouterModule.forRoot(args) -->
<g id="node8" class="node">
<title>RouterModule.forRoot(args)</title>
<polygon fill="#8dd3c7" stroke="#000000" points="1190.8419,-274 1187.8419,-278 1166.8419,-278 1163.8419,-274 1013.1581,-274 1013.1581,-238 1190.8419,-238 1190.8419,-274"/>
<text text-anchor="middle" x="1102" y="-251.8" font-family="Times,serif" font-size="14.00" fill="#000000">RouterModule.forRoot(args)</text>
</g>
<!-- RouterModule.forRoot(args)&#45;&gt;AppRoutingModule -->
<g id="edge7" class="edge">
<title>RouterModule.forRoot(args)&#45;&gt;AppRoutingModule</title>
<path fill="none" stroke="#000000" d="M1190.6941,-246C1351.2618,-246 1673.6566,-246 1673.6566,-246 1673.6566,-246 1673.6566,-180 1673.6566,-180 1673.6566,-180 1681.5239,-180 1681.5239,-180"/>
<polygon fill="#000000" stroke="#000000" points="1681.5239,-183.5001 1691.5239,-180 1681.5238,-176.5001 1681.5239,-183.5001"/>
</g>
<!-- LedComponent -->
<g id="node10" class="node">
<title>LedComponent</title>
<polygon fill="#ffffb3" stroke="#000000" points="2425.5996,-122 2322.4004,-122 2322.4004,-86 2425.5996,-86 2425.5996,-122"/>
<text text-anchor="middle" x="2374" y="-99.8" font-family="Times,serif" font-size="14.00" fill="#000000">LedComponent</text>
</g>
<!-- LedComponent&#45;&gt;BlinktCommonModule -->
<g id="edge9" class="edge">
<title>LedComponent&#45;&gt;BlinktCommonModule</title>
<path fill="none" stroke="#000000" d="M2374,-122.2396C2374,-137.5706 2374,-157 2374,-157 2374,-157 1972.7036,-157 1972.7036,-157 1972.7036,-157 1972.7036,-157.4878 1972.7036,-157.4878"/>
<polygon fill="#000000" stroke="#000000" points="1969.2039,-151.8776 1972.7036,-161.8777 1976.2039,-151.8778 1969.2039,-151.8776"/>
</g>
<!-- LoaderComponent -->
<g id="node11" class="node">
<title>LoaderComponent</title>
<polygon fill="#ffffb3" stroke="#000000" points="2304.4748,-122 2183.5252,-122 2183.5252,-86 2304.4748,-86 2304.4748,-122"/>
<text text-anchor="middle" x="2244" y="-99.8" font-family="Times,serif" font-size="14.00" fill="#000000">LoaderComponent</text>
</g>
<!-- LoaderComponent&#45;&gt;BlinktCommonModule -->
<g id="edge10" class="edge">
<title>LoaderComponent&#45;&gt;BlinktCommonModule</title>
<path fill="none" stroke="#000000" d="M2211.6161,-122.037C2211.6161,-135.2913 2211.6161,-151 2211.6161,-151 2211.6161,-151 1960.0693,-151 1960.0693,-151 1960.0693,-151 1960.0693,-152.0799 1960.0693,-152.0799"/>
<polygon fill="#000000" stroke="#000000" points="1956.5694,-151.7985 1960.0693,-161.7985 1963.5694,-151.7986 1956.5694,-151.7985"/>
</g>
<!-- BlinktColorPipe -->
<g id="node12" class="node">
<title>BlinktColorPipe</title>
<polygon fill="#ffffb3" stroke="#000000" points="2165.7842,-122 2058.2158,-122 2058.2158,-86 2165.7842,-86 2165.7842,-122"/>
<text text-anchor="middle" x="2112" y="-99.8" font-family="Times,serif" font-size="14.00" fill="#000000">BlinktColorPipe</text>
</g>
<!-- BlinktColorPipe&#45;&gt;BlinktCommonModule -->
<g id="edge11" class="edge">
<title>BlinktColorPipe&#45;&gt;BlinktCommonModule</title>
<path fill="none" stroke="#000000" d="M2084.2974,-122.1025C2084.2974,-133.0859 2084.2974,-145 2084.2974,-145 2084.2974,-145 1947.4349,-145 1947.4349,-145 1947.4349,-145 1947.4349,-151.68 1947.4349,-151.68"/>
<polygon fill="#000000" stroke="#000000" points="1943.935,-151.6799 1947.4349,-161.68 1950.935,-151.68 1943.935,-151.6799"/>
</g>
<!-- CommonModule -->
<g id="node13" class="node">
<title>CommonModule</title>
<polygon fill="#8dd3c7" stroke="#000000" points="2033.6681,-122 2030.6681,-126 2009.6681,-126 2006.6681,-122 1922.3319,-122 1922.3319,-86 2033.6681,-86 2033.6681,-122"/>
<text text-anchor="middle" x="1978" y="-99.8" font-family="Times,serif" font-size="14.00" fill="#000000">CommonModule</text>
</g>
<!-- CommonModule&#45;&gt;BlinktDashboardModule -->
<g id="edge21" class="edge">
<title>CommonModule&#45;&gt;BlinktDashboardModule</title>
<path fill="none" stroke="#000000" d="M1997.4549,-122.111C1997.4549,-160.5903 1997.4549,-247 1997.4549,-247 1997.4549,-247 1857.6409,-247 1857.6409,-247"/>
<polygon fill="#000000" stroke="#000000" points="1857.6409,-243.5001 1847.6409,-247 1857.6409,-250.5001 1857.6409,-243.5001"/>
</g>
<!-- CommonModule&#45;&gt;BlinktCommonModule -->
<g id="edge12" class="edge">
<title>CommonModule&#45;&gt;BlinktCommonModule</title>
<path fill="none" stroke="#000000" d="M1934.8006,-122.0109C1934.8006,-122.0109 1934.8006,-151.855 1934.8006,-151.855"/>
<polygon fill="#000000" stroke="#000000" points="1931.3007,-151.8549 1934.8006,-161.855 1938.3007,-151.855 1931.3007,-151.8549"/>
</g>
<!-- CommonModule&#45;&gt;BlinktDetailModule -->
<g id="edge30" class="edge">
<title>CommonModule&#45;&gt;BlinktDetailModule</title>
<path fill="none" stroke="#000000" d="M1991.3964,-122.2356C1991.3964,-151.5744 1991.3964,-206 1991.3964,-206 1991.3964,-206 213.8017,-206 213.8017,-206 213.8017,-206 213.8017,-227.9489 213.8017,-227.9489"/>
<polygon fill="#000000" stroke="#000000" points="210.3018,-227.9488 213.8017,-237.9489 217.3018,-227.9489 210.3018,-227.9488"/>
</g>
<!-- HttpClientModule -->
<g id="node14" class="node">
<title>HttpClientModule</title>
<polygon fill="#8dd3c7" stroke="#000000" points="1904.1611,-122 1901.1611,-126 1880.1611,-126 1877.1611,-122 1785.8389,-122 1785.8389,-86 1904.1611,-86 1904.1611,-122"/>
<text text-anchor="middle" x="1845" y="-99.8" font-family="Times,serif" font-size="14.00" fill="#000000">HttpClientModule</text>
</g>
<!-- HttpClientModule&#45;&gt;BlinktCommonModule -->
<g id="edge13" class="edge">
<title>HttpClientModule&#45;&gt;BlinktCommonModule</title>
<path fill="none" stroke="#000000" d="M1891.1966,-122.0109C1891.1966,-122.0109 1891.1966,-151.855 1891.1966,-151.855"/>
<polygon fill="#000000" stroke="#000000" points="1887.6967,-151.8549 1891.1966,-161.855 1894.6967,-151.855 1887.6967,-151.8549"/>
</g>
<!-- { provide: ColorService, useClass: ColorService } -->
<g id="node17" class="node">
<title>{ provide: ColorService, useClass: ColorService }</title>
<ellipse fill="#fdb462" stroke="#000000" cx="1284" cy="-104" rx="205.2033" ry="18"/>
<text text-anchor="middle" x="1284" y="-99.8" font-family="Times,serif" font-size="14.00" fill="#000000">{ provide: ColorService, useClass: ColorService }</text>
</g>
<!-- { provide: ColorService, useClass: ColorService }&#45;&gt;BlinktCommonModule -->
<g id="edge16" class="edge">
<title>{ provide: ColorService, useClass: ColorService }&#45;&gt;BlinktCommonModule</title>
<path fill="none" stroke="#000000" d="M1485.5643,-107.5834C1485.5643,-116.6892 1485.5643,-140 1485.5643,-140 1485.5643,-140 1851.7957,-140 1851.7957,-140 1851.7957,-140 1851.7957,-151.8726 1851.7957,-151.8726"/>
<polygon fill="#000000" stroke="#000000" points="1848.2958,-151.8725 1851.7957,-161.8726 1855.2958,-151.8726 1848.2958,-151.8725"/>
</g>
<!-- DashboardComponent -->
<g id="node18" class="node">
<title>DashboardComponent</title>
<polygon fill="#ffffb3" stroke="#000000" points="1161.9734,-198 1020.0266,-198 1020.0266,-162 1161.9734,-162 1161.9734,-198"/>
<text text-anchor="middle" x="1091" y="-175.8" font-family="Times,serif" font-size="14.00" fill="#000000">DashboardComponent</text>
</g>
<!-- DashboardComponent&#45;&gt;BlinktDashboardModule -->
<g id="edge17" class="edge">
<title>DashboardComponent&#45;&gt;BlinktDashboardModule</title>
<path fill="none" stroke="#000000" d="M1091,-198.1944C1091,-206.2782 1091,-214 1091,-214 1091,-214 1788.3904,-214 1788.3904,-214 1788.3904,-214 1788.3904,-227.9445 1788.3904,-227.9445"/>
<polygon fill="#000000" stroke="#000000" points="1784.8905,-227.9444 1788.3904,-237.9445 1791.8905,-227.9445 1784.8905,-227.9444"/>
</g>
<!-- LedListComponent -->
<g id="node19" class="node">
<title>LedListComponent</title>
<polygon fill="#ffffb3" stroke="#000000" points="1002.3781,-198 877.6219,-198 877.6219,-162 1002.3781,-162 1002.3781,-198"/>
<text text-anchor="middle" x="940" y="-175.8" font-family="Times,serif" font-size="14.00" fill="#000000">LedListComponent</text>
</g>
<!-- LedListComponent&#45;&gt;BlinktDashboardModule -->
<g id="edge18" class="edge">
<title>LedListComponent&#45;&gt;BlinktDashboardModule</title>
<path fill="none" stroke="#000000" d="M995.5076,-198.1097C995.5076,-207.897 995.5076,-218 995.5076,-218 995.5076,-218 1756.3938,-218 1756.3938,-218 1756.3938,-218 1756.3938,-227.8903 1756.3938,-227.8903"/>
<polygon fill="#000000" stroke="#000000" points="1752.8938,-227.8903 1756.3938,-237.8903 1759.8938,-227.8904 1752.8938,-227.8903"/>
</g>
<!-- ColorFormComponent -->
<g id="node20" class="node">
<title>ColorFormComponent</title>
<polygon fill="#ffffb3" stroke="#000000" points="1481.5547,-198 1338.4453,-198 1338.4453,-162 1481.5547,-162 1481.5547,-198"/>
<text text-anchor="middle" x="1410" y="-175.8" font-family="Times,serif" font-size="14.00" fill="#000000">ColorFormComponent</text>
</g>
<!-- ColorFormComponent&#45;&gt;BlinktDashboardModule -->
<g id="edge19" class="edge">
<title>ColorFormComponent&#45;&gt;BlinktDashboardModule</title>
<path fill="none" stroke="#000000" d="M1410,-198.1532C1410,-221.7566 1410,-260 1410,-260 1410,-260 1682.3286,-260 1682.3286,-260"/>
<polygon fill="#000000" stroke="#000000" points="1682.3286,-263.5001 1692.3286,-260 1682.3285,-256.5001 1682.3286,-263.5001"/>
</g>
<!-- ActionBarComponent -->
<g id="node21" class="node">
<title>ActionBarComponent</title>
<polygon fill="#ffffb3" stroke="#000000" points="1319.647,-198 1180.353,-198 1180.353,-162 1319.647,-162 1319.647,-198"/>
<text text-anchor="middle" x="1250" y="-175.8" font-family="Times,serif" font-size="14.00" fill="#000000">ActionBarComponent</text>
</g>
<!-- ActionBarComponent&#45;&gt;BlinktDashboardModule -->
<g id="edge20" class="edge">
<title>ActionBarComponent&#45;&gt;BlinktDashboardModule</title>
<path fill="none" stroke="#000000" d="M1255.2471,-198.0265C1255.2471,-223.5093 1255.2471,-267 1255.2471,-267 1255.2471,-267 1682.3789,-267 1682.3789,-267"/>
<polygon fill="#000000" stroke="#000000" points="1682.379,-270.5001 1692.3789,-267 1682.3789,-263.5001 1682.379,-270.5001"/>
</g>
<!-- FormsModule -->
<g id="node22" class="node">
<title>FormsModule</title>
<polygon fill="#8dd3c7" stroke="#000000" points="853.8288,-198 850.8288,-202 829.8288,-202 826.8288,-198 758.1712,-198 758.1712,-162 853.8288,-162 853.8288,-198"/>
<text text-anchor="middle" x="806" y="-175.8" font-family="Times,serif" font-size="14.00" fill="#000000">FormsModule</text>
</g>
<!-- FormsModule&#45;&gt;BlinktDashboardModule -->
<g id="edge22" class="edge">
<title>FormsModule&#45;&gt;BlinktDashboardModule</title>
<path fill="none" stroke="#000000" d="M806,-198.0555C806,-209.439 806,-222 806,-222 806,-222 1740.3954,-222 1740.3954,-222 1740.3954,-222 1740.3954,-227.8056 1740.3954,-227.8056"/>
<polygon fill="#000000" stroke="#000000" points="1736.8955,-227.8055 1740.3954,-237.8056 1743.8955,-227.8056 1736.8955,-227.8055"/>
</g>
<!-- ReactiveFormsModule -->
<g id="node23" class="node">
<title>ReactiveFormsModule</title>
<polygon fill="#8dd3c7" stroke="#000000" points="740.3047,-198 737.3047,-202 716.3047,-202 713.3047,-198 595.6953,-198 595.6953,-162 740.3047,-162 740.3047,-198"/>
<text text-anchor="middle" x="668" y="-175.8" font-family="Times,serif" font-size="14.00" fill="#000000">ReactiveFormsModule</text>
</g>
<!-- ReactiveFormsModule&#45;&gt;BlinktDashboardModule -->
<g id="edge23" class="edge">
<title>ReactiveFormsModule&#45;&gt;BlinktDashboardModule</title>
<path fill="none" stroke="#000000" d="M668,-198.1804C668,-211.0382 668,-226 668,-226 668,-226 1724.3971,-226 1724.3971,-226 1724.3971,-226 1724.3971,-227.8568 1724.3971,-227.8568"/>
<polygon fill="#000000" stroke="#000000" points="1720.8972,-227.8568 1724.3971,-237.8568 1727.8972,-227.8568 1720.8972,-227.8568"/>
</g>
<!-- BlinktDashboardRoutingModule -->
<g id="node24" class="node">
<title>BlinktDashboardRoutingModule</title>
<polygon fill="#8dd3c7" stroke="#000000" points="578.3173,-198 575.3173,-202 554.3173,-202 551.3173,-198 377.6827,-198 377.6827,-162 578.3173,-162 578.3173,-198"/>
<text text-anchor="middle" x="478" y="-175.8" font-family="Times,serif" font-size="14.00" fill="#000000">BlinktDashboardRoutingModule</text>
</g>
<!-- BlinktDashboardRoutingModule&#45;&gt;BlinktDashboardModule -->
<g id="edge24" class="edge">
<title>BlinktDashboardRoutingModule&#45;&gt;BlinktDashboardModule</title>
<path fill="none" stroke="#000000" d="M444.6138,-198.0511C444.6138,-212.373 444.6138,-230 444.6138,-230 444.6138,-230 1708.3987,-230 1708.3987,-230 1708.3987,-230 1708.3987,-230.7942 1708.3987,-230.7942"/>
<polygon fill="#000000" stroke="#000000" points="1704.8989,-227.9421 1708.3987,-237.9421 1711.8989,-227.9422 1704.8989,-227.9421"/>
</g>
<!-- BlinktDashboardRoutingModule&#45;&gt;RouterModule  -->
<g id="edge28" class="edge">
<title>BlinktDashboardRoutingModule&#45;&gt;RouterModule </title>
<path fill="none" stroke="#000000" stroke-dasharray="5,2" d="M511.3862,-198.0267C511.3862,-218.7672 511.3862,-250 511.3862,-250 511.3862,-250 877.3865,-250 877.3865,-250"/>
<polygon fill="#000000" stroke="#000000" points="877.3865,-253.5001 887.3865,-250 877.3865,-246.5001 877.3865,-253.5001"/>
</g>
<!-- RouterModule.forChild(args) -->
<g id="node26" class="node">
<title>RouterModule.forChild(args)</title>
<polygon fill="#8dd3c7" stroke="#000000" points="454.7323,-122 451.7323,-126 430.7323,-126 427.7323,-122 273.2677,-122 273.2677,-86 454.7323,-86 454.7323,-122"/>
<text text-anchor="middle" x="364" y="-99.8" font-family="Times,serif" font-size="14.00" fill="#000000">RouterModule.forChild(args)</text>
</g>
<!-- RouterModule.forChild(args)&#45;&gt;BlinktDashboardRoutingModule -->
<g id="edge27" class="edge">
<title>RouterModule.forChild(args)&#45;&gt;BlinktDashboardRoutingModule</title>
<path fill="none" stroke="#000000" d="M416.2288,-122.0109C416.2288,-122.0109 416.2288,-151.855 416.2288,-151.855"/>
<polygon fill="#000000" stroke="#000000" points="412.7289,-151.8549 416.2288,-161.855 419.7289,-151.855 412.7289,-151.8549"/>
</g>
<!-- BlinktDetailRoutingModule -->
<g id="node29" class="node">
<title>BlinktDetailRoutingModule</title>
<polygon fill="#8dd3c7" stroke="#000000" points="337.8836,-198 334.8836,-202 313.8836,-202 310.8836,-198 164.1164,-198 164.1164,-162 337.8836,-162 337.8836,-198"/>
<text text-anchor="middle" x="251" y="-175.8" font-family="Times,serif" font-size="14.00" fill="#000000">BlinktDetailRoutingModule</text>
</g>
<!-- RouterModule.forChild(args)&#45;&gt;BlinktDetailRoutingModule -->
<g id="edge33" class="edge">
<title>RouterModule.forChild(args)&#45;&gt;BlinktDetailRoutingModule</title>
<path fill="none" stroke="#000000" d="M305.6629,-122.0109C305.6629,-122.0109 305.6629,-151.855 305.6629,-151.855"/>
<polygon fill="#000000" stroke="#000000" points="302.1629,-151.8549 305.6629,-161.855 309.1629,-151.855 302.1629,-151.8549"/>
</g>
<!-- DetailComponent -->
<g id="node27" class="node">
<title>DetailComponent</title>
<polygon fill="#ffffb3" stroke="#000000" points="139.5409,-198 24.4591,-198 24.4591,-162 139.5409,-162 139.5409,-198"/>
<text text-anchor="middle" x="82" y="-175.8" font-family="Times,serif" font-size="14.00" fill="#000000">DetailComponent</text>
</g>
<!-- DetailComponent&#45;&gt;BlinktDetailModule -->
<g id="edge29" class="edge">
<title>DetailComponent&#45;&gt;BlinktDetailModule</title>
<path fill="none" stroke="#000000" d="M120.6935,-198.0109C120.6935,-198.0109 120.6935,-227.855 120.6935,-227.855"/>
<polygon fill="#000000" stroke="#000000" points="117.1936,-227.8549 120.6935,-237.855 124.1936,-227.855 117.1936,-227.8549"/>
</g>
<!-- BlinktDetailRoutingModule&#45;&gt;RouterModule  -->
<g id="edge34" class="edge">
<title>BlinktDetailRoutingModule&#45;&gt;RouterModule </title>
<path fill="none" stroke="#000000" stroke-dasharray="5,2" d="M284.1624,-198.1985C284.1624,-222.3563 284.1624,-262 284.1624,-262 284.1624,-262 877.2385,-262 877.2385,-262"/>
<polygon fill="#000000" stroke="#000000" points="877.2386,-265.5001 887.2385,-262 877.2385,-258.5001 877.2386,-265.5001"/>
</g>
<!-- BlinktDetailRoutingModule&#45;&gt;BlinktDetailModule -->
<g id="edge31" class="edge">
<title>BlinktDetailRoutingModule&#45;&gt;BlinktDetailModule</title>
<path fill="none" stroke="#000000" d="M180.6394,-198.0109C180.6394,-198.0109 180.6394,-227.855 180.6394,-227.855"/>
<polygon fill="#000000" stroke="#000000" points="177.1395,-227.8549 180.6394,-237.855 184.1395,-227.855 177.1395,-227.8549"/>
</g>
</g>
</svg>
