<?xml version="1.0" encoding="UTF-8" standalone="no"?>
<!DOCTYPE svg PUBLIC "-//W3C//DTD SVG 1.1//EN"
 "http://www.w3.org/Graphics/SVG/1.1/DTD/svg11.dtd">
<!-- Generated by graphviz version 2.40.1 (20161225.0304)
 -->
<!-- Title: dependencies Pages: 1 -->
<svg width="2845pt" height="428pt"
 viewBox="0.00 0.00 2845.00 428.00" xmlns="http://www.w3.org/2000/svg" xmlns:xlink="http://www.w3.org/1999/xlink">
<g id="graph0" class="graph" transform="scale(1 1) rotate(0) translate(4 424)">
<title>dependencies</title>
<polygon fill="#ffffff" stroke="transparent" points="-4,4 -4,-424 2841,-424 2841,4 -4,4"/>
<text text-anchor="start" x="1397.5091" y="-42.4" font-family="sans-serif" font-weight="bold" font-size="14.00" fill="#000000">Legend</text>
<polygon fill="#ffffb3" stroke="transparent" points="1184.5,-10 1184.5,-30 1204.5,-30 1204.5,-10 1184.5,-10"/>
<text text-anchor="start" x="1208.129" y="-15.4" font-family="sans-serif" font-size="14.00" fill="#000000"> &#160;Declarations</text>
<polygon fill="#8dd3c7" stroke="transparent" points="1297.5,-10 1297.5,-30 1317.5,-30 1317.5,-10 1297.5,-10"/>
<text text-anchor="start" x="1321.2251" y="-15.4" font-family="sans-serif" font-size="14.00" fill="#000000"> &#160;Module</text>
<polygon fill="#80b1d3" stroke="transparent" points="1383.5,-10 1383.5,-30 1403.5,-30 1403.5,-10 1383.5,-10"/>
<text text-anchor="start" x="1407.2812" y="-15.4" font-family="sans-serif" font-size="14.00" fill="#000000"> &#160;Bootstrap</text>
<polygon fill="#fdb462" stroke="transparent" points="1480.5,-10 1480.5,-30 1500.5,-30 1500.5,-10 1480.5,-10"/>
<text text-anchor="start" x="1504.1732" y="-15.4" font-family="sans-serif" font-size="14.00" fill="#000000"> &#160;Providers</text>
<polygon fill="#fb8072" stroke="transparent" points="1576.5,-10 1576.5,-30 1596.5,-30 1596.5,-10 1576.5,-10"/>
<text text-anchor="start" x="1600.2258" y="-15.4" font-family="sans-serif" font-size="14.00" fill="#000000"> &#160;Exports</text>
<g id="clust1" class="cluster">
<title>cluster_AppModule</title>
<polygon fill="none" stroke="#000000" stroke-dasharray="1,5" points="559,-146 559,-412 1139,-412 1139,-146 559,-146"/>
</g>
<g id="clust2" class="cluster">
<title>cluster_AppModule_declarations</title>
<polygon fill="none" stroke="#000000" points="1009,-222 1009,-274 1131,-274 1131,-222 1009,-222"/>
</g>
<g id="clust4" class="cluster">
<title>cluster_AppModule_imports</title>
<polygon fill="none" stroke="#000000" points="567,-154 567,-274 1001,-274 1001,-154 567,-154"/>
</g>
<g id="clust6" class="cluster">
<title>cluster_AppModule_bootstrap</title>
<polygon fill="none" stroke="#000000" points="756,-352 756,-404 880,-404 880,-352 756,-352"/>
</g>
<g id="clust8" class="cluster">
<title>cluster_BlinktCommonModule</title>
<polygon fill="none" stroke="#000000" stroke-dasharray="1,5" points="8,-70 8,-138 1516,-138 1516,-70 8,-70"/>
</g>
<g id="clust9" class="cluster">
<title>cluster_BlinktCommonModule_declarations</title>
<polygon fill="none" stroke="#000000" points="1125,-78 1125,-130 1508,-130 1508,-78 1125,-78"/>
</g>
<g id="clust13" class="cluster">
<title>cluster_BlinktCommonModule_imports</title>
<polygon fill="none" stroke="#000000" points="853,-78 853,-130 1117,-130 1117,-78 853,-78"/>
</g>
<g id="clust14" class="cluster">
<title>cluster_BlinktCommonModule_exports</title>
<polygon fill="none" stroke="#000000" points="450,-78 450,-130 845,-130 845,-78 450,-78"/>
</g>
<g id="clust16" class="cluster">
<title>cluster_BlinktCommonModule_providers</title>
<polygon fill="none" stroke="#000000" points="16,-78 16,-130 442,-130 442,-78 16,-78"/>
</g>
<g id="clust17" class="cluster">
<title>cluster_BlinktDashboardModule</title>
<polygon fill="none" stroke="#000000" stroke-dasharray="1,5" points="1147,-146 1147,-214 2453,-214 2453,-146 1147,-146"/>
</g>
<g id="clust18" class="cluster">
<title>cluster_BlinktDashboardModule_declarations</title>
<polygon fill="none" stroke="#000000" points="1825,-154 1825,-206 2445,-206 2445,-154 1825,-154"/>
</g>
<g id="clust23" class="cluster">
<title>cluster_BlinktDashboardModule_imports</title>
<polygon fill="none" stroke="#000000" points="1325,-154 1325,-206 1817,-206 1817,-154 1325,-154"/>
</g>
<g id="clust24" class="cluster">
<title>cluster_BlinktDashboardModule_exports</title>
<polygon fill="none" stroke="#000000" points="1155,-154 1155,-206 1317,-206 1317,-154 1155,-154"/>
</g>
<g id="clust27" class="cluster">
<title>cluster_BlinktDashboardRoutingModule</title>
<polygon fill="none" stroke="#000000" stroke-dasharray="1,5" points="1938,-70 1938,-138 2278,-138 2278,-70 1938,-70"/>
</g>
<g id="clust29" class="cluster">
<title>cluster_BlinktDashboardRoutingModule_imports</title>
<polygon fill="none" stroke="#000000" points="2072,-78 2072,-130 2270,-130 2270,-78 2072,-78"/>
</g>
<g id="clust30" class="cluster">
<title>cluster_BlinktDashboardRoutingModule_exports</title>
<polygon fill="none" stroke="#000000" points="1946,-78 1946,-130 2064,-130 2064,-78 1946,-78"/>
</g>
<g id="clust33" class="cluster">
<title>cluster_BlinktDetailModule</title>
<polygon fill="none" stroke="#000000" stroke-dasharray="1,5" points="2483,-146 2483,-274 2829,-274 2829,-146 2483,-146"/>
</g>
<g id="clust34" class="cluster">
<title>cluster_BlinktDetailModule_declarations</title>
<polygon fill="none" stroke="#000000" points="2689,-154 2689,-206 2821,-206 2821,-154 2689,-154"/>
</g>
<g id="clust36" class="cluster">
<title>cluster_BlinktDetailModule_imports</title>
<polygon fill="none" stroke="#000000" points="2491,-154 2491,-206 2681,-206 2681,-154 2491,-154"/>
</g>
<!-- AppComponent -->
<g id="node1" class="node">
<title>AppComponent</title>
<polygon fill="#ffffb3" stroke="#000000" points="1122.9399,-266 1017.0601,-266 1017.0601,-230 1122.9399,-230 1122.9399,-266"/>
<text text-anchor="middle" x="1070" y="-243.8" font-family="Times,serif" font-size="14.00" fill="#000000">AppComponent</text>
</g>
<!-- AppModule -->
<g id="node2" class="node">
<title>AppModule</title>
<polygon fill="#8dd3c7" stroke="#000000" points="859.6571,-331 856.6571,-335 835.6571,-335 832.6571,-331 776.3429,-331 776.3429,-295 859.6571,-295 859.6571,-331"/>
<text text-anchor="middle" x="818" y="-308.8" font-family="Times,serif" font-size="14.00" fill="#000000">AppModule</text>
</g>
<!-- AppComponent&#45;&gt;AppModule -->
<g id="edge1" class="edge">
<title>AppComponent&#45;&gt;AppModule</title>
<path fill="none" stroke="#000000" d="M1070,-266.1061C1070,-285.3391 1070,-313 1070,-313 1070,-313 869.8956,-313 869.8956,-313"/>
<polygon fill="#000000" stroke="#000000" points="869.8956,-309.5001 859.8956,-313 869.8955,-316.5001 869.8956,-309.5001"/>
</g>
<!-- AppComponent  -->
<g id="node7" class="node">
<title>AppComponent </title>
<polygon fill="#80b1d3" stroke="#000000" points="872.439,-396 763.561,-396 763.561,-360 872.439,-360 872.439,-396"/>
<text text-anchor="middle" x="818" y="-373.8" font-family="Times,serif" font-size="14.00" fill="#000000">AppComponent </text>
</g>
<!-- AppModule&#45;&gt;AppComponent  -->
<g id="edge6" class="edge">
<title>AppModule&#45;&gt;AppComponent </title>
<path fill="none" stroke="#000000" stroke-dasharray="1,5" d="M818,-331.1061C818,-331.1061 818,-349.991 818,-349.991"/>
<polygon fill="#000000" stroke="#000000" points="814.5001,-349.9909 818,-359.991 821.5001,-349.991 814.5001,-349.9909"/>
</g>
<!-- BrowserModule -->
<g id="node3" class="node">
<title>BrowserModule</title>
<polygon fill="#8dd3c7" stroke="#000000" points="681.4734,-198 678.4734,-202 657.4734,-202 654.4734,-198 574.5266,-198 574.5266,-162 681.4734,-162 681.4734,-198"/>
<text text-anchor="middle" x="628" y="-175.8" font-family="Times,serif" font-size="14.00" fill="#000000">BrowserModule</text>
</g>
<!-- BrowserModule&#45;&gt;AppModule -->
<g id="edge2" class="edge">
<title>BrowserModule&#45;&gt;AppModule</title>
<path fill="none" stroke="#000000" d="M628,-198.2142C628,-234.6396 628,-313 628,-313 628,-313 766.3037,-313 766.3037,-313"/>
<polygon fill="#000000" stroke="#000000" points="766.3037,-316.5001 776.3037,-313 766.3037,-309.5001 766.3037,-316.5001"/>
</g>
<!-- AppRoutingModule -->
<g id="node4" class="node">
<title>AppRoutingModule</title>
<polygon fill="#8dd3c7" stroke="#000000" points="828.2744,-198 825.2744,-202 804.2744,-202 801.2744,-198 699.7256,-198 699.7256,-162 828.2744,-162 828.2744,-198"/>
<text text-anchor="middle" x="764" y="-175.8" font-family="Times,serif" font-size="14.00" fill="#000000">AppRoutingModule</text>
</g>
<!-- AppRoutingModule&#45;&gt;AppModule -->
<g id="edge3" class="edge">
<title>AppRoutingModule&#45;&gt;AppModule</title>
<path fill="none" stroke="#000000" d="M802.2795,-198.2142C802.2795,-198.2142 802.2795,-284.579 802.2795,-284.579"/>
<polygon fill="#000000" stroke="#000000" points="798.7795,-284.5789 802.2795,-294.579 805.7795,-284.579 798.7795,-284.5789"/>
</g>
<!-- BlinktDashboardModule -->
<g id="node5" class="node">
<title>BlinktDashboardModule</title>
<polygon fill="#8dd3c7" stroke="#000000" points="992.6993,-266 989.6993,-270 968.6993,-270 965.6993,-266 837.3007,-266 837.3007,-230 992.6993,-230 992.6993,-266"/>
<text text-anchor="middle" x="915" y="-243.8" font-family="Times,serif" font-size="14.00" fill="#000000">BlinktDashboardModule</text>
</g>
<!-- BlinktDashboardModule&#45;&gt;AppModule -->
<g id="edge4" class="edge">
<title>BlinktDashboardModule&#45;&gt;AppModule</title>
<path fill="none" stroke="#000000" d="M848.6143,-266.1061C848.6143,-266.1061 848.6143,-284.991 848.6143,-284.991"/>
<polygon fill="#000000" stroke="#000000" points="845.1144,-284.9909 848.6143,-294.991 852.1144,-284.991 845.1144,-284.9909"/>
</g>
<!-- DashboardComponent  -->
<g id="node24" class="node">
<title>DashboardComponent </title>
<polygon fill="#fb8072" stroke="#000000" points="1308.9742,-198 1163.0258,-198 1163.0258,-162 1308.9742,-162 1308.9742,-198"/>
<text text-anchor="middle" x="1236" y="-175.8" font-family="Times,serif" font-size="14.00" fill="#000000">DashboardComponent </text>
</g>
<!-- BlinktDashboardModule&#45;&gt;DashboardComponent  -->
<g id="edge25" class="edge">
<title>BlinktDashboardModule&#45;&gt;DashboardComponent </title>
<path fill="none" stroke="#000000" stroke-dasharray="5,2" d="M993.0457,-254C1003.4297,-254 1010.5757,-254 1010.5757,-254 1010.5757,-254 1010.5757,-189 1010.5757,-189 1010.5757,-189 1153.1225,-189 1153.1225,-189"/>
<polygon fill="#000000" stroke="#000000" points="1153.1225,-192.5001 1163.1225,-189 1153.1225,-185.5001 1153.1225,-192.5001"/>
</g>
<!-- BlinktCommonModule -->
<g id="node6" class="node">
<title>BlinktCommonModule</title>
<polygon fill="#8dd3c7" stroke="#000000" points="993.1764,-198 990.1764,-202 969.1764,-202 966.1764,-198 846.8236,-198 846.8236,-162 993.1764,-162 993.1764,-198"/>
<text text-anchor="middle" x="920" y="-175.8" font-family="Times,serif" font-size="14.00" fill="#000000">BlinktCommonModule</text>
</g>
<!-- BlinktCommonModule&#45;&gt;AppModule -->
<g id="edge5" class="edge">
<title>BlinktCommonModule&#45;&gt;AppModule</title>
<path fill="none" stroke="#000000" d="M846.6172,-186C837.4085,-186 831.1387,-186 831.1387,-186 831.1387,-186 831.1387,-284.804 831.1387,-284.804"/>
<polygon fill="#000000" stroke="#000000" points="827.6388,-284.804 831.1387,-294.804 834.6388,-284.804 827.6388,-284.804"/>
</g>
<!-- BlinktCommonModule&#45;&gt;BlinktDashboardModule -->
<g id="edge24" class="edge">
<title>BlinktCommonModule&#45;&gt;BlinktDashboardModule</title>
<path fill="none" stroke="#000000" d="M862.8773,-198.2228C862.8773,-198.2228 862.8773,-219.7269 862.8773,-219.7269"/>
<polygon fill="#000000" stroke="#000000" points="859.3774,-219.7269 862.8773,-229.7269 866.3774,-219.727 859.3774,-219.7269"/>
</g>
<!-- LedComponent  -->
<g id="node13" class="node">
<title>LedComponent </title>
<polygon fill="#fb8072" stroke="#000000" points="707.1003,-122 600.8997,-122 600.8997,-86 707.1003,-86 707.1003,-122"/>
<text text-anchor="middle" x="654" y="-99.8" font-family="Times,serif" font-size="14.00" fill="#000000">LedComponent </text>
</g>
<!-- BlinktCommonModule&#45;&gt;LedComponent  -->
<g id="edge12" class="edge">
<title>BlinktCommonModule&#45;&gt;LedComponent </title>
<path fill="none" stroke="#000000" stroke-dasharray="5,2" d="M857.1678,-161.9551C857.1678,-154.251 857.1678,-147 857.1678,-147 857.1678,-147 703.4564,-147 703.4564,-147 703.4564,-147 703.4564,-132.4854 703.4564,-132.4854"/>
<polygon fill="#000000" stroke="#000000" points="706.9564,-132.4854 703.4564,-122.4854 699.9564,-132.4855 706.9564,-132.4854"/>
</g>
<!-- LoaderComponent  -->
<g id="node14" class="node">
<title>LoaderComponent </title>
<polygon fill="#fb8072" stroke="#000000" points="582.4757,-122 457.5243,-122 457.5243,-86 582.4757,-86 582.4757,-122"/>
<text text-anchor="middle" x="520" y="-99.8" font-family="Times,serif" font-size="14.00" fill="#000000">LoaderComponent </text>
</g>
<!-- BlinktCommonModule&#45;&gt;LoaderComponent  -->
<g id="edge13" class="edge">
<title>BlinktCommonModule&#45;&gt;LoaderComponent </title>
<path fill="none" stroke="#000000" stroke-dasharray="5,2" d="M853.6659,-161.793C853.6659,-156.4451 853.6659,-152 853.6659,-152 853.6659,-152 578.3754,-152 578.3754,-152 578.3754,-152 578.3754,-132.1467 578.3754,-132.1467"/>
<polygon fill="#000000" stroke="#000000" points="581.8754,-132.1467 578.3754,-122.1467 574.8754,-132.1468 581.8754,-132.1467"/>
</g>
<!-- BlinktColorPipe  -->
<g id="node15" class="node">
<title>BlinktColorPipe </title>
<polygon fill="#fb8072" stroke="#000000" points="836.7844,-122 725.2156,-122 725.2156,-86 836.7844,-86 836.7844,-122"/>
<text text-anchor="middle" x="781" y="-99.8" font-family="Times,serif" font-size="14.00" fill="#000000">BlinktColorPipe </text>
</g>
<!-- BlinktCommonModule&#45;&gt;BlinktColorPipe  -->
<g id="edge14" class="edge">
<title>BlinktCommonModule&#45;&gt;BlinktColorPipe </title>
<path fill="none" stroke="#000000" stroke-dasharray="5,2" d="M846.5961,-174C838.9411,-174 833.8904,-174 833.8904,-174 833.8904,-174 833.8904,-132.0267 833.8904,-132.0267"/>
<polygon fill="#000000" stroke="#000000" points="837.3905,-132.0267 833.8904,-122.0267 830.3905,-132.0268 837.3905,-132.0267"/>
</g>
<!-- BlinktDetailModule -->
<g id="node28" class="node">
<title>BlinktDetailModule</title>
<polygon fill="#8dd3c7" stroke="#000000" points="2634.266,-266 2631.266,-270 2610.266,-270 2607.266,-266 2505.734,-266 2505.734,-230 2634.266,-230 2634.266,-266"/>
<text text-anchor="middle" x="2570" y="-243.8" font-family="Times,serif" font-size="14.00" fill="#000000">BlinktDetailModule</text>
</g>
<!-- BlinktCommonModule&#45;&gt;BlinktDetailModule -->
<g id="edge31" class="edge">
<title>BlinktCommonModule&#45;&gt;BlinktDetailModule</title>
<path fill="none" stroke="#000000" d="M993.2022,-180C1052.4079,-180 1125.9839,-180 1125.9839,-180 1125.9839,-180 1125.9839,-254 1125.9839,-254 1125.9839,-254 2495.6195,-254 2495.6195,-254"/>
<polygon fill="#000000" stroke="#000000" points="2495.6196,-257.5001 2505.6195,-254 2495.6195,-250.5001 2495.6196,-257.5001"/>
</g>
<!-- LedComponent -->
<g id="node8" class="node">
<title>LedComponent</title>
<polygon fill="#ffffb3" stroke="#000000" points="1374.5996,-122 1271.4004,-122 1271.4004,-86 1374.5996,-86 1374.5996,-122"/>
<text text-anchor="middle" x="1323" y="-99.8" font-family="Times,serif" font-size="14.00" fill="#000000">LedComponent</text>
</g>
<!-- LedComponent&#45;&gt;BlinktCommonModule -->
<g id="edge7" class="edge">
<title>LedComponent&#45;&gt;BlinktCommonModule</title>
<path fill="none" stroke="#000000" d="M1290.0935,-122.0449C1290.0935,-129.749 1290.0935,-137 1290.0935,-137 1290.0935,-137 986.3342,-137 986.3342,-137 986.3342,-137 986.3342,-151.5146 986.3342,-151.5146"/>
<polygon fill="#000000" stroke="#000000" points="982.8342,-151.5145 986.3342,-161.5146 989.8342,-151.5146 982.8342,-151.5145"/>
</g>
<!-- LoaderComponent -->
<g id="node9" class="node">
<title>LoaderComponent</title>
<polygon fill="#ffffb3" stroke="#000000" points="1253.4748,-122 1132.5252,-122 1132.5252,-86 1253.4748,-86 1253.4748,-122"/>
<text text-anchor="middle" x="1193" y="-99.8" font-family="Times,serif" font-size="14.00" fill="#000000">LoaderComponent</text>
</g>
<!-- LoaderComponent&#45;&gt;BlinktCommonModule -->
<g id="edge8" class="edge">
<title>LoaderComponent&#45;&gt;BlinktCommonModule</title>
<path fill="none" stroke="#000000" d="M1147.888,-122.308C1147.888,-142.1455 1147.888,-171 1147.888,-171 1147.888,-171 1003.3596,-171 1003.3596,-171"/>
<polygon fill="#000000" stroke="#000000" points="1003.3596,-167.5001 993.3596,-171 1003.3595,-174.5001 1003.3596,-167.5001"/>
</g>
<!-- BlinktColorPipe -->
<g id="node10" class="node">
<title>BlinktColorPipe</title>
<polygon fill="#ffffb3" stroke="#000000" points="1499.7842,-122 1392.2158,-122 1392.2158,-86 1499.7842,-86 1499.7842,-122"/>
<text text-anchor="middle" x="1446" y="-99.8" font-family="Times,serif" font-size="14.00" fill="#000000">BlinktColorPipe</text>
</g>
<!-- BlinktColorPipe&#45;&gt;BlinktCommonModule -->
<g id="edge9" class="edge">
<title>BlinktColorPipe&#45;&gt;BlinktCommonModule</title>
<path fill="none" stroke="#000000" d="M1446,-122.1097C1446,-131.897 1446,-142 1446,-142 1446,-142 989.8361,-142 989.8361,-142 989.8361,-142 989.8361,-151.8903 989.8361,-151.8903"/>
<polygon fill="#000000" stroke="#000000" points="986.3362,-151.8903 989.8361,-161.8903 993.3362,-151.8904 986.3362,-151.8903"/>
</g>
<!-- CommonModule -->
<g id="node11" class="node">
<title>CommonModule</title>
<polygon fill="#8dd3c7" stroke="#000000" points="1108.6681,-122 1105.6681,-126 1084.6681,-126 1081.6681,-122 997.3319,-122 997.3319,-86 1108.6681,-86 1108.6681,-122"/>
<text text-anchor="middle" x="1053" y="-99.8" font-family="Times,serif" font-size="14.00" fill="#000000">CommonModule</text>
</g>
<!-- CommonModule&#45;&gt;BlinktDashboardModule -->
<g id="edge20" class="edge">
<title>CommonModule&#45;&gt;BlinktDashboardModule</title>
<path fill="none" stroke="#000000" d="M1003.871,-122.0411C1003.871,-159.4476 1003.871,-242 1003.871,-242 1003.871,-242 1002.6154,-242 1002.6154,-242"/>
<polygon fill="#000000" stroke="#000000" points="1002.6154,-238.5001 992.6154,-242 1002.6154,-245.5001 1002.6154,-238.5001"/>
</g>
<!-- CommonModule&#45;&gt;BlinktCommonModule -->
<g id="edge10" class="edge">
<title>CommonModule&#45;&gt;BlinktCommonModule</title>
<path fill="none" stroke="#000000" d="M997.0317,-104C988.6952,-104 982.8322,-104 982.8322,-104 982.8322,-104 982.8322,-151.9891 982.8322,-151.9891"/>
<polygon fill="#000000" stroke="#000000" points="979.3323,-151.989 982.8322,-161.9891 986.3323,-151.9891 979.3323,-151.989"/>
</g>
<!-- CommonModule&#45;&gt;BlinktDetailModule -->
<g id="edge29" class="edge">
<title>CommonModule&#45;&gt;BlinktDetailModule</title>
<path fill="none" stroke="#000000" d="M1108.8151,-104C1120.442,-104 1129.2482,-104 1129.2482,-104 1129.2482,-104 1129.2482,-242 1129.2482,-242 1129.2482,-242 2495.2949,-242 2495.2949,-242"/>
<polygon fill="#000000" stroke="#000000" points="2495.295,-245.5001 2505.2949,-242 2495.2949,-238.5001 2495.295,-245.5001"/>
</g>
<!-- HttpClientModule -->
<g id="node12" class="node">
<title>HttpClientModule</title>
<polygon fill="#8dd3c7" stroke="#000000" points="979.1611,-122 976.1611,-126 955.1611,-126 952.1611,-122 860.8389,-122 860.8389,-86 979.1611,-86 979.1611,-122"/>
<text text-anchor="middle" x="920" y="-99.8" font-family="Times,serif" font-size="14.00" fill="#000000">HttpClientModule</text>
</g>
<!-- HttpClientModule&#45;&gt;BlinktCommonModule -->
<g id="edge11" class="edge">
<title>HttpClientModule&#45;&gt;BlinktCommonModule</title>
<path fill="none" stroke="#000000" d="M920,-122.0109C920,-122.0109 920,-151.855 920,-151.855"/>
<polygon fill="#000000" stroke="#000000" points="916.5001,-151.8549 920,-161.855 923.5001,-151.855 916.5001,-151.8549"/>
</g>
<!-- { provide: ColorService, useClass: ColorService } -->
<g id="node16" class="node">
<title>{ provide: ColorService, useClass: ColorService }</title>
<ellipse fill="#fdb462" stroke="#000000" cx="229" cy="-104" rx="205.2033" ry="18"/>
<text text-anchor="middle" x="229" y="-99.8" font-family="Times,serif" font-size="14.00" fill="#000000">{ provide: ColorService, useClass: ColorService }</text>
</g>
<!-- { provide: ColorService, useClass: ColorService }&#45;&gt;BlinktCommonModule -->
<g id="edge15" class="edge">
<title>{ provide: ColorService, useClass: ColorService }&#45;&gt;BlinktCommonModule</title>
<path fill="none" stroke="#000000" d="M229,-122.2396C229,-137.5706 229,-157 229,-157 229,-157 850.1639,-157 850.1639,-157 850.1639,-157 850.1639,-157.4878 850.1639,-157.4878"/>
<polygon fill="#000000" stroke="#000000" points="846.6642,-151.8776 850.1639,-161.8777 853.6642,-151.8778 846.6642,-151.8776"/>
</g>
<!-- DashboardComponent -->
<g id="node17" class="node">
<title>DashboardComponent</title>
<polygon fill="#ffffb3" stroke="#000000" points="2116.9734,-198 1975.0266,-198 1975.0266,-162 2116.9734,-162 2116.9734,-198"/>
<text text-anchor="middle" x="2046" y="-175.8" font-family="Times,serif" font-size="14.00" fill="#000000">DashboardComponent</text>
</g>
<!-- DashboardComponent&#45;&gt;BlinktDashboardModule -->
<g id="edge16" class="edge">
<title>DashboardComponent&#45;&gt;BlinktDashboardModule</title>
<path fill="none" stroke="#000000" d="M2046,-198.1097C2046,-207.897 2046,-218 2046,-218 2046,-218 943.9537,-218 943.9537,-218 943.9537,-218 943.9537,-219.8568 943.9537,-219.8568"/>
<polygon fill="#000000" stroke="#000000" points="940.4538,-219.8568 943.9537,-229.8568 947.4538,-219.8568 940.4538,-219.8568"/>
</g>
<!-- LedListComponent -->
<g id="node18" class="node">
<title>LedListComponent</title>
<polygon fill="#ffffb3" stroke="#000000" points="1957.3781,-198 1832.6219,-198 1832.6219,-162 1957.3781,-162 1957.3781,-198"/>
<text text-anchor="middle" x="1895" y="-175.8" font-family="Times,serif" font-size="14.00" fill="#000000">LedListComponent</text>
</g>
<!-- LedListComponent&#45;&gt;BlinktDashboardModule -->
<g id="edge17" class="edge">
<title>LedListComponent&#45;&gt;BlinktDashboardModule</title>
<path fill="none" stroke="#000000" d="M1895,-198.1944C1895,-206.2782 1895,-214 1895,-214 1895,-214 927.7384,-214 927.7384,-214 927.7384,-214 927.7384,-219.8056 927.7384,-219.8056"/>
<polygon fill="#000000" stroke="#000000" points="924.2385,-219.8055 927.7384,-229.8056 931.2385,-219.8056 924.2385,-219.8055"/>
</g>
<!-- ColorFormComponent -->
<g id="node19" class="node">
<title>ColorFormComponent</title>
<polygon fill="#ffffb3" stroke="#000000" points="2436.5547,-198 2293.4453,-198 2293.4453,-162 2436.5547,-162 2436.5547,-198"/>
<text text-anchor="middle" x="2365" y="-175.8" font-family="Times,serif" font-size="14.00" fill="#000000">ColorFormComponent</text>
</g>
<!-- ColorFormComponent&#45;&gt;BlinktDashboardModule -->
<g id="edge18" class="edge">
<title>ColorFormComponent&#45;&gt;BlinktDashboardModule</title>
<path fill="none" stroke="#000000" d="M2365,-198.1804C2365,-211.0382 2365,-226 2365,-226 2365,-226 976.3843,-226 976.3843,-226 976.3843,-226 976.3843,-226.3832 976.3843,-226.3832"/>
<polygon fill="#000000" stroke="#000000" points="972.8846,-219.832 976.3843,-229.8321 979.8846,-219.8322 972.8846,-219.832"/>
</g>
<!-- ActionBarComponent -->
<g id="node20" class="node">
<title>ActionBarComponent</title>
<polygon fill="#ffffb3" stroke="#000000" points="2274.647,-198 2135.353,-198 2135.353,-162 2274.647,-162 2274.647,-198"/>
<text text-anchor="middle" x="2205" y="-175.8" font-family="Times,serif" font-size="14.00" fill="#000000">ActionBarComponent</text>
</g>
<!-- ActionBarComponent&#45;&gt;BlinktDashboardModule -->
<g id="edge19" class="edge">
<title>ActionBarComponent&#45;&gt;BlinktDashboardModule</title>
<path fill="none" stroke="#000000" d="M2205,-198.0555C2205,-209.439 2205,-222 2205,-222 2205,-222 960.169,-222 960.169,-222 960.169,-222 960.169,-222.7942 960.169,-222.7942"/>
<polygon fill="#000000" stroke="#000000" points="956.6692,-219.9421 960.169,-229.9421 963.6692,-219.9422 956.6692,-219.9421"/>
</g>
<!-- FormsModule -->
<g id="node21" class="node">
<title>FormsModule</title>
<polygon fill="#8dd3c7" stroke="#000000" points="1808.8288,-198 1805.8288,-202 1784.8288,-202 1781.8288,-198 1713.1712,-198 1713.1712,-162 1808.8288,-162 1808.8288,-198"/>
<text text-anchor="middle" x="1761" y="-175.8" font-family="Times,serif" font-size="14.00" fill="#000000">FormsModule</text>
</g>
<!-- FormsModule&#45;&gt;BlinktDashboardModule -->
<g id="edge21" class="edge">
<title>FormsModule&#45;&gt;BlinktDashboardModule</title>
<path fill="none" stroke="#000000" d="M1761,-198.1432C1761,-204.4611 1761,-210 1761,-210 1761,-210 911.5232,-210 911.5232,-210 911.5232,-210 911.5232,-219.8903 911.5232,-219.8903"/>
<polygon fill="#000000" stroke="#000000" points="908.0233,-219.8903 911.5232,-229.8903 915.0233,-219.8904 908.0233,-219.8903"/>
</g>
<!-- ReactiveFormsModule -->
<g id="node22" class="node">
<title>ReactiveFormsModule</title>
<polygon fill="#8dd3c7" stroke="#000000" points="1695.3047,-198 1692.3047,-202 1671.3047,-202 1668.3047,-198 1550.6953,-198 1550.6953,-162 1695.3047,-162 1695.3047,-198"/>
<text text-anchor="middle" x="1623" y="-175.8" font-family="Times,serif" font-size="14.00" fill="#000000">ReactiveFormsModule</text>
</g>
<!-- ReactiveFormsModule&#45;&gt;BlinktDashboardModule -->
<g id="edge22" class="edge">
<title>ReactiveFormsModule&#45;&gt;BlinktDashboardModule</title>
<path fill="none" stroke="#000000" d="M1623,-198.0579C1623,-202.4945 1623,-206 1623,-206 1623,-206 895.3079,-206 895.3079,-206 895.3079,-206 895.3079,-219.9445 895.3079,-219.9445"/>
<polygon fill="#000000" stroke="#000000" points="891.808,-219.9444 895.3079,-229.9445 898.808,-219.9445 891.808,-219.9444"/>
</g>
<!-- BlinktDashboardRoutingModule -->
<g id="node23" class="node">
<title>BlinktDashboardRoutingModule</title>
<polygon fill="#8dd3c7" stroke="#000000" points="1533.3173,-198 1530.3173,-202 1509.3173,-202 1506.3173,-198 1332.6827,-198 1332.6827,-162 1533.3173,-162 1533.3173,-198"/>
<text text-anchor="middle" x="1433" y="-175.8" font-family="Times,serif" font-size="14.00" fill="#000000">BlinktDashboardRoutingModule</text>
</g>
<!-- BlinktDashboardRoutingModule&#45;&gt;BlinktDashboardModule -->
<g id="edge23" class="edge">
<title>BlinktDashboardRoutingModule&#45;&gt;BlinktDashboardModule</title>
<path fill="none" stroke="#000000" d="M1433,-198.1679C1433,-200.4478 1433,-202 1433,-202 1433,-202 879.0926,-202 879.0926,-202 879.0926,-202 879.0926,-219.8196 879.0926,-219.8196"/>
<polygon fill="#000000" stroke="#000000" points="875.5927,-219.8195 879.0926,-229.8196 882.5927,-219.8196 875.5927,-219.8195"/>
</g>
<!-- RouterModule  -->
<g id="node26" class="node">
<title>RouterModule </title>
<polygon fill="#fb8072" stroke="#000000" points="2055.6523,-122 1954.3477,-122 1954.3477,-86 2055.6523,-86 2055.6523,-122"/>
<text text-anchor="middle" x="2005" y="-99.8" font-family="Times,serif" font-size="14.00" fill="#000000">RouterModule </text>
</g>
<!-- BlinktDashboardRoutingModule&#45;&gt;RouterModule  -->
<g id="edge27" class="edge">
<title>BlinktDashboardRoutingModule&#45;&gt;RouterModule </title>
<path fill="none" stroke="#000000" stroke-dasharray="5,2" d="M1510.9808,-161.9891C1510.9808,-139.5148 1510.9808,-104 1510.9808,-104 1510.9808,-104 1943.992,-104 1943.992,-104"/>
<polygon fill="#000000" stroke="#000000" points="1943.992,-107.5001 1953.992,-104 1943.9919,-100.5001 1943.992,-107.5001"/>
</g>
<!-- RouterModule.forChild(args) -->
<g id="node25" class="node">
<title>RouterModule.forChild(args)</title>
<polygon fill="#8dd3c7" stroke="#000000" points="2261.7323,-122 2258.7323,-126 2237.7323,-126 2234.7323,-122 2080.2677,-122 2080.2677,-86 2261.7323,-86 2261.7323,-122"/>
<text text-anchor="middle" x="2171" y="-99.8" font-family="Times,serif" font-size="14.00" fill="#000000">RouterModule.forChild(args)</text>
</g>
<!-- RouterModule.forChild(args)&#45;&gt;BlinktDashboardRoutingModule -->
<g id="edge26" class="edge">
<title>RouterModule.forChild(args)&#45;&gt;BlinktDashboardRoutingModule</title>
<path fill="none" stroke="#000000" d="M2098.6853,-122.1223C2098.6853,-124.9729 2098.6853,-127 2098.6853,-127 2098.6853,-127 1522.0697,-127 1522.0697,-127 1522.0697,-127 1522.0697,-151.7604 1522.0697,-151.7604"/>
<polygon fill="#000000" stroke="#000000" points="1518.5698,-151.7604 1522.0697,-161.7604 1525.5698,-151.7604 1518.5698,-151.7604"/>
</g>
<!-- BlinktDetailRoutingModule -->
<g id="node29" class="node">
<title>BlinktDetailRoutingModule</title>
<polygon fill="#8dd3c7" stroke="#000000" points="2672.8836,-198 2669.8836,-202 2648.8836,-202 2645.8836,-198 2499.1164,-198 2499.1164,-162 2672.8836,-162 2672.8836,-198"/>
<text text-anchor="middle" x="2586" y="-175.8" font-family="Times,serif" font-size="14.00" fill="#000000">BlinktDetailRoutingModule</text>
</g>
<!-- RouterModule.forChild(args)&#45;&gt;BlinktDetailRoutingModule -->
<g id="edge32" class="edge">
<title>RouterModule.forChild(args)&#45;&gt;BlinktDetailRoutingModule</title>
<path fill="none" stroke="#000000" d="M2261.9924,-104C2376.1166,-104 2557.0194,-104 2557.0194,-104 2557.0194,-104 2557.0194,-151.9891 2557.0194,-151.9891"/>
<polygon fill="#000000" stroke="#000000" points="2553.5195,-151.989 2557.0194,-161.9891 2560.5195,-151.9891 2553.5195,-151.989"/>
</g>
<!-- DetailComponent -->
<g id="node27" class="node">
<title>DetailComponent</title>
<polygon fill="#ffffb3" stroke="#000000" points="2812.5409,-198 2697.4591,-198 2697.4591,-162 2812.5409,-162 2812.5409,-198"/>
<text text-anchor="middle" x="2755" y="-175.8" font-family="Times,serif" font-size="14.00" fill="#000000">DetailComponent</text>
</g>
<!-- DetailComponent&#45;&gt;BlinktDetailModule -->
<g id="edge28" class="edge">
<title>DetailComponent&#45;&gt;BlinktDetailModule</title>
<path fill="none" stroke="#000000" d="M2755,-198.2228C2755,-218.3652 2755,-248 2755,-248 2755,-248 2644.4443,-248 2644.4443,-248"/>
<polygon fill="#000000" stroke="#000000" points="2644.4444,-244.5001 2634.4443,-248 2644.4443,-251.5001 2644.4444,-244.5001"/>
</g>
<!-- BlinktDetailRoutingModule&#45;&gt;RouterModule  -->
<g id="edge33" class="edge">
<title>BlinktDetailRoutingModule&#45;&gt;RouterModule </title>
<path fill="none" stroke="#000000" stroke-dasharray="5,2" d="M2614.9806,-161.8533C2614.9806,-148.2605 2614.9806,-132 2614.9806,-132 2614.9806,-132 2015.2947,-132 2015.2947,-132 2015.2947,-132 2015.2947,-131.0207 2015.2947,-131.0207"/>
<polygon fill="#000000" stroke="#000000" points="2018.7948,-132.2069 2015.2947,-122.207 2011.7948,-132.207 2018.7948,-132.2069"/>
</g>
<!-- BlinktDetailRoutingModule&#45;&gt;BlinktDetailModule -->
<g id="edge30" class="edge">
<title>BlinktDetailRoutingModule&#45;&gt;BlinktDetailModule</title>
<path fill="none" stroke="#000000" d="M2570,-198.2228C2570,-198.2228 2570,-219.7269 2570,-219.7269"/>
<polygon fill="#000000" stroke="#000000" points="2566.5001,-219.7269 2570,-229.7269 2573.5001,-219.727 2566.5001,-219.7269"/>
</g>
</g>
</svg>
