<?xml version="1.0" encoding="UTF-8" standalone="no"?>
<!DOCTYPE svg PUBLIC "-//W3C//DTD SVG 1.1//EN"
 "http://www.w3.org/Graphics/SVG/1.1/DTD/svg11.dtd">
<!-- Generated by graphviz version 2.40.1 (20161225.0304)
 -->
<!-- Title: dependencies Pages: 1 -->
<svg width="1756pt" height="436pt"
 viewBox="0.00 0.00 1756.00 436.00" xmlns="http://www.w3.org/2000/svg" xmlns:xlink="http://www.w3.org/1999/xlink">
<g id="graph0" class="graph" transform="scale(1 1) rotate(0) translate(4 432)">
<title>dependencies</title>
<polygon fill="#ffffff" stroke="transparent" points="-4,4 -4,-432 1752,-432 1752,4 -4,4"/>
<text text-anchor="start" x="853.0091" y="-42.4" font-family="sans-serif" font-weight="bold" font-size="14.00" fill="#000000">Legend</text>
<polygon fill="#ffffb3" stroke="transparent" points="640,-10 640,-30 660,-30 660,-10 640,-10"/>
<text text-anchor="start" x="663.629" y="-15.4" font-family="sans-serif" font-size="14.00" fill="#000000"> &#160;Declarations</text>
<polygon fill="#8dd3c7" stroke="transparent" points="753,-10 753,-30 773,-30 773,-10 753,-10"/>
<text text-anchor="start" x="776.7251" y="-15.4" font-family="sans-serif" font-size="14.00" fill="#000000"> &#160;Module</text>
<polygon fill="#80b1d3" stroke="transparent" points="839,-10 839,-30 859,-30 859,-10 839,-10"/>
<text text-anchor="start" x="862.7812" y="-15.4" font-family="sans-serif" font-size="14.00" fill="#000000"> &#160;Bootstrap</text>
<polygon fill="#fdb462" stroke="transparent" points="936,-10 936,-30 956,-30 956,-10 936,-10"/>
<text text-anchor="start" x="959.6732" y="-15.4" font-family="sans-serif" font-size="14.00" fill="#000000"> &#160;Providers</text>
<polygon fill="#fb8072" stroke="transparent" points="1032,-10 1032,-30 1052,-30 1052,-10 1032,-10"/>
<text text-anchor="start" x="1055.7258" y="-15.4" font-family="sans-serif" font-size="14.00" fill="#000000"> &#160;Exports</text>
<g id="clust1" class="cluster">
<title>cluster_AppModule</title>
<polygon fill="none" stroke="#000000" stroke-dasharray="1,5" points="8,-146 8,-420 588,-420 588,-146 8,-146"/>
</g>
<g id="clust2" class="cluster">
<title>cluster_AppModule_declarations</title>
<polygon fill="none" stroke="#000000" points="458,-230 458,-282 580,-282 580,-230 458,-230"/>
</g>
<g id="clust4" class="cluster">
<title>cluster_AppModule_imports</title>
<polygon fill="none" stroke="#000000" points="16,-154 16,-282 450,-282 450,-154 16,-154"/>
</g>
<g id="clust6" class="cluster">
<title>cluster_AppModule_bootstrap</title>
<polygon fill="none" stroke="#000000" points="205,-360 205,-412 329,-412 329,-360 205,-360"/>
</g>
<g id="clust8" class="cluster">
<title>cluster_AppRoutingModule</title>
<polygon fill="none" stroke="#000000" stroke-dasharray="1,5" points="596,-222 596,-290 932,-290 932,-222 596,-222"/>
</g>
<g id="clust10" class="cluster">
<title>cluster_AppRoutingModule_imports</title>
<polygon fill="none" stroke="#000000" points="604,-230 604,-282 798,-282 798,-230 604,-230"/>
</g>
<g id="clust11" class="cluster">
<title>cluster_AppRoutingModule_exports</title>
<polygon fill="none" stroke="#000000" points="806,-230 806,-282 924,-282 924,-230 806,-230"/>
</g>
<g id="clust14" class="cluster">
<title>cluster_BlinktCommonModule</title>
<polygon fill="none" stroke="#000000" stroke-dasharray="1,5" points="13,-70 13,-138 415,-138 415,-70 13,-70"/>
</g>
<g id="clust15" class="cluster">
<title>cluster_BlinktCommonModule_declarations</title>
<polygon fill="none" stroke="#000000" points="157,-78 157,-130 277,-130 277,-78 157,-78"/>
</g>
<g id="clust17" class="cluster">
<title>cluster_BlinktCommonModule_imports</title>
<polygon fill="none" stroke="#000000" points="21,-78 21,-130 149,-130 149,-78 21,-78"/>
</g>
<g id="clust18" class="cluster">
<title>cluster_BlinktCommonModule_exports</title>
<polygon fill="none" stroke="#000000" points="285,-78 285,-130 407,-130 407,-78 285,-78"/>
</g>
<g id="clust21" class="cluster">
<title>cluster_BlinktDashboardModule</title>
<polygon fill="none" stroke="#000000" stroke-dasharray="1,5" points="596,-146 596,-214 1740,-214 1740,-146 596,-146"/>
</g>
<g id="clust22" class="cluster">
<title>cluster_BlinktDashboardModule_declarations</title>
<polygon fill="none" stroke="#000000" points="774,-154 774,-206 1394,-206 1394,-154 774,-154"/>
</g>
<g id="clust27" class="cluster">
<title>cluster_BlinktDashboardModule_imports</title>
<polygon fill="none" stroke="#000000" points="1402,-154 1402,-206 1732,-206 1732,-154 1402,-154"/>
</g>
<g id="clust28" class="cluster">
<title>cluster_BlinktDashboardModule_exports</title>
<polygon fill="none" stroke="#000000" points="604,-154 604,-206 766,-206 766,-154 604,-154"/>
</g>
<g id="clust31" class="cluster">
<title>cluster_BlinktDashboardRoutingModule</title>
<polygon fill="none" stroke="#000000" stroke-dasharray="1,5" points="1517,-70 1517,-138 1731,-138 1731,-70 1517,-70"/>
</g>
<g id="clust33" class="cluster">
<title>cluster_BlinktDashboardRoutingModule_imports</title>
<polygon fill="none" stroke="#000000" points="1525,-78 1525,-130 1723,-130 1723,-78 1525,-78"/>
</g>
<!-- AppComponent -->
<g id="node1" class="node">
<title>AppComponent</title>
<polygon fill="#ffffb3" stroke="#000000" points="571.9399,-274 466.0601,-274 466.0601,-238 571.9399,-238 571.9399,-274"/>
<text text-anchor="middle" x="519" y="-251.8" font-family="Times,serif" font-size="14.00" fill="#000000">AppComponent</text>
</g>
<!-- AppModule -->
<g id="node2" class="node">
<title>AppModule</title>
<polygon fill="#8dd3c7" stroke="#000000" points="308.6571,-339 305.6571,-343 284.6571,-343 281.6571,-339 225.3429,-339 225.3429,-303 308.6571,-303 308.6571,-339"/>
<text text-anchor="middle" x="267" y="-316.8" font-family="Times,serif" font-size="14.00" fill="#000000">AppModule</text>
</g>
<!-- AppComponent&#45;&gt;AppModule -->
<g id="edge1" class="edge">
<title>AppComponent&#45;&gt;AppModule</title>
<path fill="none" stroke="#000000" d="M519,-274.1061C519,-293.3391 519,-321 519,-321 519,-321 318.8956,-321 318.8956,-321"/>
<polygon fill="#000000" stroke="#000000" points="318.8956,-317.5001 308.8956,-321 318.8955,-324.5001 318.8956,-317.5001"/>
</g>
<!-- AppComponent  -->
<g id="node7" class="node">
<title>AppComponent </title>
<polygon fill="#80b1d3" stroke="#000000" points="321.439,-404 212.561,-404 212.561,-368 321.439,-368 321.439,-404"/>
<text text-anchor="middle" x="267" y="-381.8" font-family="Times,serif" font-size="14.00" fill="#000000">AppComponent </text>
</g>
<!-- AppModule&#45;&gt;AppComponent  -->
<g id="edge6" class="edge">
<title>AppModule&#45;&gt;AppComponent </title>
<path fill="none" stroke="#000000" stroke-dasharray="1,5" d="M267,-339.1061C267,-339.1061 267,-357.991 267,-357.991"/>
<polygon fill="#000000" stroke="#000000" points="263.5001,-357.9909 267,-367.991 270.5001,-357.991 263.5001,-357.9909"/>
</g>
<!-- BrowserModule -->
<g id="node3" class="node">
<title>BrowserModule</title>
<polygon fill="#8dd3c7" stroke="#000000" points="130.4734,-198 127.4734,-202 106.4734,-202 103.4734,-198 23.5266,-198 23.5266,-162 130.4734,-162 130.4734,-198"/>
<text text-anchor="middle" x="77" y="-175.8" font-family="Times,serif" font-size="14.00" fill="#000000">BrowserModule</text>
</g>
<!-- BrowserModule&#45;&gt;AppModule -->
<g id="edge2" class="edge">
<title>BrowserModule&#45;&gt;AppModule</title>
<path fill="none" stroke="#000000" d="M77,-198.1446C77,-236.2265 77,-321 77,-321 77,-321 215.3037,-321 215.3037,-321"/>
<polygon fill="#000000" stroke="#000000" points="215.3037,-324.5001 225.3037,-321 215.3037,-317.5001 215.3037,-324.5001"/>
</g>
<!-- AppRoutingModule -->
<g id="node4" class="node">
<title>AppRoutingModule</title>
<polygon fill="#8dd3c7" stroke="#000000" points="442.2744,-198 439.2744,-202 418.2744,-202 415.2744,-198 313.7256,-198 313.7256,-162 442.2744,-162 442.2744,-198"/>
<text text-anchor="middle" x="378" y="-175.8" font-family="Times,serif" font-size="14.00" fill="#000000">AppRoutingModule</text>
</g>
<!-- AppRoutingModule&#45;&gt;AppModule -->
<g id="edge3" class="edge">
<title>AppRoutingModule&#45;&gt;AppModule</title>
<path fill="none" stroke="#000000" d="M327.8336,-198.1223C327.8336,-200.9729 327.8336,-203 327.8336,-203 327.8336,-203 265.9909,-203 265.9909,-203 265.9909,-203 265.9909,-292.8211 265.9909,-292.8211"/>
<polygon fill="#000000" stroke="#000000" points="262.491,-292.8211 265.9909,-302.8211 269.491,-292.8211 262.491,-292.8211"/>
</g>
<!-- RouterModule  -->
<g id="node9" class="node">
<title>RouterModule </title>
<polygon fill="#fb8072" stroke="#000000" points="915.6523,-274 814.3477,-274 814.3477,-238 915.6523,-238 915.6523,-274"/>
<text text-anchor="middle" x="865" y="-251.8" font-family="Times,serif" font-size="14.00" fill="#000000">RouterModule </text>
</g>
<!-- AppRoutingModule&#45;&gt;RouterModule  -->
<g id="edge8" class="edge">
<title>AppRoutingModule&#45;&gt;RouterModule </title>
<path fill="none" stroke="#000000" stroke-dasharray="5,2" d="M342.0544,-198.2819C342.0544,-213.9478 342.0544,-234 342.0544,-234 342.0544,-234 860.4315,-234 860.4315,-234 860.4315,-234 860.4315,-234.3832 860.4315,-234.3832"/>
<polygon fill="#000000" stroke="#000000" points="856.9317,-227.832 860.4315,-237.8321 863.9317,-227.8322 856.9317,-227.832"/>
</g>
<!-- BlinktDashboardModule -->
<g id="node5" class="node">
<title>BlinktDashboardModule</title>
<polygon fill="#8dd3c7" stroke="#000000" points="441.6993,-274 438.6993,-278 417.6993,-278 414.6993,-274 286.3007,-274 286.3007,-238 441.6993,-238 441.6993,-274"/>
<text text-anchor="middle" x="364" y="-251.8" font-family="Times,serif" font-size="14.00" fill="#000000">BlinktDashboardModule</text>
</g>
<!-- BlinktDashboardModule&#45;&gt;AppModule -->
<g id="edge4" class="edge">
<title>BlinktDashboardModule&#45;&gt;AppModule</title>
<path fill="none" stroke="#000000" d="M297.6143,-274.1061C297.6143,-274.1061 297.6143,-292.991 297.6143,-292.991"/>
<polygon fill="#000000" stroke="#000000" points="294.1144,-292.9909 297.6143,-302.991 301.1144,-292.991 294.1144,-292.9909"/>
</g>
<!-- DashboardComponent  -->
<g id="node19" class="node">
<title>DashboardComponent </title>
<polygon fill="#fb8072" stroke="#000000" points="757.9742,-198 612.0258,-198 612.0258,-162 757.9742,-162 757.9742,-198"/>
<text text-anchor="middle" x="685" y="-175.8" font-family="Times,serif" font-size="14.00" fill="#000000">DashboardComponent </text>
</g>
<!-- BlinktDashboardModule&#45;&gt;DashboardComponent  -->
<g id="edge20" class="edge">
<title>BlinktDashboardModule&#45;&gt;DashboardComponent </title>
<path fill="none" stroke="#000000" stroke-dasharray="5,2" d="M441.7733,-256C449.3716,-256 454.3338,-256 454.3338,-256 454.3338,-256 454.3338,-186 454.3338,-186 454.3338,-186 602.0158,-186 602.0158,-186"/>
<polygon fill="#000000" stroke="#000000" points="602.0158,-189.5001 612.0158,-186 602.0157,-182.5001 602.0158,-189.5001"/>
</g>
<!-- BlinktCommonModule -->
<g id="node6" class="node">
<title>BlinktCommonModule</title>
<polygon fill="#8dd3c7" stroke="#000000" points="295.1764,-198 292.1764,-202 271.1764,-202 268.1764,-198 148.8236,-198 148.8236,-162 295.1764,-162 295.1764,-198"/>
<text text-anchor="middle" x="222" y="-175.8" font-family="Times,serif" font-size="14.00" fill="#000000">BlinktCommonModule</text>
</g>
<!-- BlinktCommonModule&#45;&gt;AppModule -->
<g id="edge5" class="edge">
<title>BlinktCommonModule&#45;&gt;AppModule</title>
<path fill="none" stroke="#000000" d="M245.5813,-198.1446C245.5813,-198.1446 245.5813,-292.925 245.5813,-292.925"/>
<polygon fill="#000000" stroke="#000000" points="242.0814,-292.925 245.5813,-302.925 249.0814,-292.925 242.0814,-292.925"/>
</g>
<!-- BlinktCommonModule&#45;&gt;BlinktDashboardModule -->
<g id="edge19" class="edge">
<title>BlinktCommonModule&#45;&gt;BlinktDashboardModule</title>
<path fill="none" stroke="#000000" d="M290.8692,-198.0109C290.8692,-198.0109 290.8692,-227.855 290.8692,-227.855"/>
<polygon fill="#000000" stroke="#000000" points="287.3693,-227.8549 290.8692,-237.855 294.3693,-227.855 287.3693,-227.8549"/>
</g>
<!-- LedComponent  -->
<g id="node12" class="node">
<title>LedComponent </title>
<polygon fill="#fb8072" stroke="#000000" points="399.1003,-122 292.8997,-122 292.8997,-86 399.1003,-86 399.1003,-122"/>
<text text-anchor="middle" x="346" y="-99.8" font-family="Times,serif" font-size="14.00" fill="#000000">LedComponent </text>
</g>
<!-- BlinktCommonModule&#45;&gt;LedComponent  -->
<g id="edge11" class="edge">
<title>BlinktCommonModule&#45;&gt;LedComponent </title>
<path fill="none" stroke="#000000" stroke-dasharray="5,2" d="M295.334,-180C300.9404,-180 304.4755,-180 304.4755,-180 304.4755,-180 304.4755,-132.0109 304.4755,-132.0109"/>
<polygon fill="#000000" stroke="#000000" points="307.9755,-132.0109 304.4755,-122.0109 300.9755,-132.011 307.9755,-132.0109"/>
</g>
<!-- RouterModule.forRoot(args) -->
<g id="node8" class="node">
<title>RouterModule.forRoot(args)</title>
<polygon fill="#8dd3c7" stroke="#000000" points="789.8419,-274 786.8419,-278 765.8419,-278 762.8419,-274 612.1581,-274 612.1581,-238 789.8419,-238 789.8419,-274"/>
<text text-anchor="middle" x="701" y="-251.8" font-family="Times,serif" font-size="14.00" fill="#000000">RouterModule.forRoot(args)</text>
</g>
<!-- RouterModule.forRoot(args)&#45;&gt;AppRoutingModule -->
<g id="edge7" class="edge">
<title>RouterModule.forRoot(args)&#45;&gt;AppRoutingModule</title>
<path fill="none" stroke="#000000" d="M612.2396,-256C600.2586,-256 591.9914,-256 591.9914,-256 591.9914,-256 591.9914,-174 591.9914,-174 591.9914,-174 452.4947,-174 452.4947,-174"/>
<polygon fill="#000000" stroke="#000000" points="452.4947,-170.5001 442.4947,-174 452.4946,-177.5001 452.4947,-170.5001"/>
</g>
<!-- LedComponent -->
<g id="node10" class="node">
<title>LedComponent</title>
<polygon fill="#ffffb3" stroke="#000000" points="268.5996,-122 165.4004,-122 165.4004,-86 268.5996,-86 268.5996,-122"/>
<text text-anchor="middle" x="217" y="-99.8" font-family="Times,serif" font-size="14.00" fill="#000000">LedComponent</text>
</g>
<!-- LedComponent&#45;&gt;BlinktCommonModule -->
<g id="edge9" class="edge">
<title>LedComponent&#45;&gt;BlinktCommonModule</title>
<path fill="none" stroke="#000000" d="M217,-122.0109C217,-122.0109 217,-151.855 217,-151.855"/>
<polygon fill="#000000" stroke="#000000" points="213.5001,-151.8549 217,-161.855 220.5001,-151.855 213.5001,-151.8549"/>
</g>
<!-- CommonModule -->
<g id="node11" class="node">
<title>CommonModule</title>
<polygon fill="#8dd3c7" stroke="#000000" points="140.6681,-122 137.6681,-126 116.6681,-126 113.6681,-122 29.3319,-122 29.3319,-86 140.6681,-86 140.6681,-122"/>
<text text-anchor="middle" x="85" y="-99.8" font-family="Times,serif" font-size="14.00" fill="#000000">CommonModule</text>
</g>
<!-- CommonModule&#45;&gt;BlinktDashboardModule -->
<g id="edge16" class="edge">
<title>CommonModule&#45;&gt;BlinktDashboardModule</title>
<path fill="none" stroke="#000000" d="M133.9357,-122.0333C133.9357,-162.2965 133.9357,-256 133.9357,-256 133.9357,-256 276.1107,-256 276.1107,-256"/>
<polygon fill="#000000" stroke="#000000" points="276.1108,-259.5001 286.1107,-256 276.1107,-252.5001 276.1108,-259.5001"/>
</g>
<!-- CommonModule&#45;&gt;BlinktCommonModule -->
<g id="edge10" class="edge">
<title>CommonModule&#45;&gt;BlinktCommonModule</title>
<path fill="none" stroke="#000000" d="M137.3848,-122.0109C137.3848,-144.4852 137.3848,-180 137.3848,-180 137.3848,-180 138.7964,-180 138.7964,-180"/>
<polygon fill="#000000" stroke="#000000" points="138.7964,-183.5001 148.7964,-180 138.7963,-176.5001 138.7964,-183.5001"/>
</g>
<!-- DashboardComponent -->
<g id="node13" class="node">
<title>DashboardComponent</title>
<polygon fill="#ffffb3" stroke="#000000" points="1065.9734,-198 924.0266,-198 924.0266,-162 1065.9734,-162 1065.9734,-198"/>
<text text-anchor="middle" x="995" y="-175.8" font-family="Times,serif" font-size="14.00" fill="#000000">DashboardComponent</text>
</g>
<!-- DashboardComponent&#45;&gt;BlinktDashboardModule -->
<g id="edge12" class="edge">
<title>DashboardComponent&#45;&gt;BlinktDashboardModule</title>
<path fill="none" stroke="#000000" d="M995,-198.2434C995,-205.4297 995,-212 995,-212 995,-212 370.4959,-212 370.4959,-212 370.4959,-212 370.4959,-227.8495 370.4959,-227.8495"/>
<polygon fill="#000000" stroke="#000000" points="366.996,-227.8494 370.4959,-237.8495 373.996,-227.8495 366.996,-227.8494"/>
</g>
<!-- LedListComponent -->
<g id="node14" class="node">
<title>LedListComponent</title>
<polygon fill="#ffffb3" stroke="#000000" points="906.3781,-198 781.6219,-198 781.6219,-162 906.3781,-162 906.3781,-198"/>
<text text-anchor="middle" x="844" y="-175.8" font-family="Times,serif" font-size="14.00" fill="#000000">LedListComponent</text>
</g>
<!-- LedListComponent&#45;&gt;BlinktDashboardModule -->
<g id="edge13" class="edge">
<title>LedListComponent&#45;&gt;BlinktDashboardModule</title>
<path fill="none" stroke="#000000" d="M785.6159,-198.1592C785.6159,-203.0433 785.6159,-207 785.6159,-207 785.6159,-207 356.2751,-207 356.2751,-207 356.2751,-207 356.2751,-227.7542 356.2751,-227.7542"/>
<polygon fill="#000000" stroke="#000000" points="352.7752,-227.7542 356.2751,-237.7542 359.7752,-227.7542 352.7752,-227.7542"/>
</g>
<!-- ColorFormComponent -->
<g id="node15" class="node">
<title>ColorFormComponent</title>
<polygon fill="#ffffb3" stroke="#000000" points="1385.5547,-198 1242.4453,-198 1242.4453,-162 1385.5547,-162 1385.5547,-198"/>
<text text-anchor="middle" x="1314" y="-175.8" font-family="Times,serif" font-size="14.00" fill="#000000">ColorFormComponent</text>
</g>
<!-- ColorFormComponent&#45;&gt;BlinktDashboardModule -->
<g id="edge14" class="edge">
<title>ColorFormComponent&#45;&gt;BlinktDashboardModule</title>
<path fill="none" stroke="#000000" d="M1314,-198.1025C1314,-209.0859 1314,-221 1314,-221 1314,-221 398.9374,-221 398.9374,-221 398.9374,-221 398.9374,-227.68 398.9374,-227.68"/>
<polygon fill="#000000" stroke="#000000" points="395.4375,-227.6799 398.9374,-237.68 402.4375,-227.68 395.4375,-227.6799"/>
</g>
<!-- ActionBarComponent -->
<g id="node16" class="node">
<title>ActionBarComponent</title>
<polygon fill="#ffffb3" stroke="#000000" points="1223.647,-198 1084.353,-198 1084.353,-162 1223.647,-162 1223.647,-198"/>
<text text-anchor="middle" x="1154" y="-175.8" font-family="Times,serif" font-size="14.00" fill="#000000">ActionBarComponent</text>
</g>
<!-- ActionBarComponent&#45;&gt;BlinktDashboardModule -->
<g id="edge15" class="edge">
<title>ActionBarComponent&#45;&gt;BlinktDashboardModule</title>
<path fill="none" stroke="#000000" d="M1154,-198.4218C1154,-207.2791 1154,-216 1154,-216 1154,-216 384.7166,-216 384.7166,-216 384.7166,-216 384.7166,-227.8726 384.7166,-227.8726"/>
<polygon fill="#000000" stroke="#000000" points="381.2167,-227.8725 384.7166,-237.8726 388.2167,-227.8726 381.2167,-227.8725"/>
</g>
<!-- FormsModule -->
<g id="node17" class="node">
<title>FormsModule</title>
<polygon fill="#8dd3c7" stroke="#000000" points="1505.8288,-198 1502.8288,-202 1481.8288,-202 1478.8288,-198 1410.1712,-198 1410.1712,-162 1505.8288,-162 1505.8288,-198"/>
<text text-anchor="middle" x="1458" y="-175.8" font-family="Times,serif" font-size="14.00" fill="#000000">FormsModule</text>
</g>
<!-- FormsModule&#45;&gt;BlinktDashboardModule -->
<g id="edge17" class="edge">
<title>FormsModule&#45;&gt;BlinktDashboardModule</title>
<path fill="none" stroke="#000000" d="M1458,-198.0439C1458,-210.5633 1458,-225 1458,-225 1458,-225 413.1581,-225 413.1581,-225 413.1581,-225 413.1581,-227.9672 413.1581,-227.9672"/>
<polygon fill="#000000" stroke="#000000" points="409.6582,-227.9671 413.1581,-237.9672 416.6582,-227.9672 409.6582,-227.9671"/>
</g>
<!-- BlinktDashboardRoutingModule -->
<g id="node18" class="node">
<title>BlinktDashboardRoutingModule</title>
<polygon fill="#8dd3c7" stroke="#000000" points="1724.3173,-198 1721.3173,-202 1700.3173,-202 1697.3173,-198 1523.6827,-198 1523.6827,-162 1724.3173,-162 1724.3173,-198"/>
<text text-anchor="middle" x="1624" y="-175.8" font-family="Times,serif" font-size="14.00" fill="#000000">BlinktDashboardRoutingModule</text>
</g>
<!-- BlinktDashboardRoutingModule&#45;&gt;BlinktDashboardModule -->
<g id="edge18" class="edge">
<title>BlinktDashboardRoutingModule&#45;&gt;BlinktDashboardModule</title>
<path fill="none" stroke="#000000" d="M1590.6138,-198.0511C1590.6138,-212.373 1590.6138,-230 1590.6138,-230 1590.6138,-230 427.3789,-230 427.3789,-230 427.3789,-230 427.3789,-230.7942 427.3789,-230.7942"/>
<polygon fill="#000000" stroke="#000000" points="423.879,-227.9421 427.3789,-237.9421 430.879,-227.9422 423.879,-227.9421"/>
</g>
<!-- BlinktDashboardRoutingModule&#45;&gt;RouterModule  -->
<g id="edge22" class="edge">
<title>BlinktDashboardRoutingModule&#45;&gt;RouterModule </title>
<path fill="none" stroke="#000000" stroke-dasharray="5,2" d="M1657.3862,-198.0109C1657.3862,-220.4852 1657.3862,-256 1657.3862,-256 1657.3862,-256 925.7727,-256 925.7727,-256"/>
<polygon fill="#000000" stroke="#000000" points="925.7728,-252.5001 915.7727,-256 925.7727,-259.5001 925.7728,-252.5001"/>
</g>
<!-- RouterModule.forChild(args) -->
<g id="node20" class="node">
<title>RouterModule.forChild(args)</title>
<polygon fill="#8dd3c7" stroke="#000000" points="1714.7323,-122 1711.7323,-126 1690.7323,-126 1687.7323,-122 1533.2677,-122 1533.2677,-86 1714.7323,-86 1714.7323,-122"/>
<text text-anchor="middle" x="1624" y="-99.8" font-family="Times,serif" font-size="14.00" fill="#000000">RouterModule.forChild(args)</text>
</g>
<!-- RouterModule.forChild(args)&#45;&gt;BlinktDashboardRoutingModule -->
<g id="edge21" class="edge">
<title>RouterModule.forChild(args)&#45;&gt;BlinktDashboardRoutingModule</title>
<path fill="none" stroke="#000000" d="M1624,-122.0109C1624,-122.0109 1624,-151.855 1624,-151.855"/>
<polygon fill="#000000" stroke="#000000" points="1620.5001,-151.8549 1624,-161.855 1627.5001,-151.855 1620.5001,-151.8549"/>
</g>
</g>
</svg>
